<svg width="16" height="16" viewBox="0 0 16 16" fill="none" xmlns="http://www.w3.org/2000/svg">
<path d="M8.00001 16C7.8674 16 7.74022 15.9473 7.64646 15.8536C7.55269 15.7598 7.50001 15.6326 7.50001 15.5V14.207L6.85401 14.854C6.76012 14.9478 6.63284 15.0004 6.50015 15.0003C6.36747 15.0002 6.24026 14.9474 6.14651 14.8535C6.05275 14.7596 6.00014 14.6323 6.00023 14.4996C6.00032 14.367 6.05312 14.2398 6.14701 14.146L7.50001 12.793V8.866L4.10001 10.829L3.60401 12.679C3.56953 12.8071 3.48558 12.9163 3.37062 12.9825C3.25566 13.0487 3.11911 13.0665 2.99101 13.032C2.86291 12.9975 2.75375 12.9136 2.68755 12.7986C2.62135 12.6836 2.60353 12.5471 2.63801 12.419L2.87501 11.537L1.75501 12.183C1.64023 12.2483 1.5043 12.2655 1.37688 12.2309C1.24946 12.1963 1.14089 12.1127 1.07487 11.9983C1.00885 11.884 0.990742 11.7482 1.02449 11.6205C1.05824 11.4929 1.14111 11.3838 1.25501 11.317L2.37501 10.671L1.49101 10.434C1.42758 10.4169 1.36814 10.3875 1.31607 10.3475C1.264 10.3074 1.22033 10.2575 1.18755 10.2006C1.15477 10.1437 1.13353 10.0809 1.12503 10.0157C1.11653 9.9506 1.12094 9.88443 1.13801 9.821C1.15508 9.75757 1.18448 9.69813 1.22452 9.64606C1.26457 9.59399 1.31448 9.55032 1.3714 9.51754C1.42832 9.48477 1.49114 9.46352 1.55628 9.45502C1.62141 9.44652 1.68758 9.45093 1.75101 9.468L3.59901 9.963L7.00001 8L3.60001 6.037L1.75001 6.532C1.62274 6.56372 1.48811 6.54416 1.37513 6.47754C1.26215 6.41092 1.17987 6.30258 1.14602 6.17586C1.11218 6.04914 1.12948 5.9142 1.1942 5.80012C1.25892 5.68604 1.36588 5.60196 1.49201 5.566L2.37501 5.329L1.25501 4.683C1.19769 4.65041 1.14738 4.6068 1.10697 4.55469C1.06657 4.50257 1.03688 4.44298 1.0196 4.37935C1.00233 4.31571 0.997808 4.24928 1.00631 4.18389C1.01481 4.1185 1.03616 4.05544 1.06913 3.99834C1.1021 3.94123 1.14604 3.89121 1.19842 3.85116C1.2508 3.8111 1.31059 3.7818 1.37434 3.76495C1.43809 3.7481 1.50454 3.74402 1.56987 3.75295C1.6352 3.76188 1.69812 3.78365 1.75501 3.817L2.87501 4.463L2.63801 3.58C2.61981 3.51618 2.61451 3.44937 2.6224 3.38348C2.63028 3.31758 2.65121 3.25392 2.68396 3.1962C2.71671 3.13847 2.76062 3.08785 2.81313 3.04727C2.86565 3.00669 2.92571 2.97697 2.98983 2.95985C3.05395 2.94272 3.12083 2.93854 3.18659 2.94753C3.25234 2.95652 3.31565 2.97851 3.37281 3.01222C3.42998 3.04593 3.47986 3.09068 3.51956 3.14386C3.55925 3.19705 3.58796 3.2576 3.60401 3.322L4.09901 5.171L7.50001 7.134V3.207L6.14701 1.854C6.10052 1.80758 6.06363 1.75245 6.03845 1.69177C6.01326 1.6311 6.00028 1.56605 6.00023 1.50035C6.00018 1.43466 6.01308 1.36959 6.03818 1.30888C6.06327 1.24816 6.10009 1.19299 6.14651 1.1465C6.19293 1.10001 6.24805 1.06312 6.30873 1.03794C6.36941 1.01275 6.43446 0.999768 6.50015 0.999722C6.56585 0.999676 6.63092 1.01257 6.69163 1.03767C6.75234 1.06277 6.80752 1.09958 6.85401 1.146L7.50001 1.793V0.5C7.50001 0.367392 7.55269 0.240215 7.64646 0.146447C7.74022 0.0526784 7.8674 0 8.00001 0C8.13262 0 8.25979 0.0526784 8.35356 0.146447C8.44733 0.240215 8.50001 0.367392 8.50001 0.5V1.793L9.14701 1.146C9.2409 1.05225 9.36818 0.999628 9.50086 0.999722C9.63354 0.999816 9.76075 1.05261 9.85451 1.1465C9.94826 1.24039 10.0009 1.36767 10.0008 1.50035C10.0007 1.63304 9.9479 1.76025 9.85401 1.854L8.50001 3.207V7.134L11.9 5.171L12.396 3.321C12.4305 3.1929 12.5144 3.08374 12.6294 3.01754C12.7444 2.95134 12.8809 2.93352 13.009 2.968C13.1371 3.00248 13.2463 3.08643 13.3125 3.20139C13.3787 3.31635 13.3965 3.4529 13.362 3.581L13.126 4.463L14.246 3.817C14.3608 3.75174 14.4967 3.73453 14.6241 3.76913C14.7516 3.80372 14.8601 3.88731 14.9261 4.00165C14.9922 4.116 15.0103 4.25181 14.9765 4.37946C14.9428 4.50711 14.8599 4.61622 14.746 4.683L13.626 5.329L14.509 5.566C14.6371 5.60048 14.7463 5.68443 14.8125 5.79939C14.8787 5.91435 14.8965 6.0509 14.862 6.179C14.8275 6.3071 14.7436 6.41626 14.6286 6.48246C14.5137 6.54866 14.3771 6.56648 14.249 6.532L12.401 6.037L9.00001 8L12.4 9.963L14.249 9.468C14.3771 9.43365 14.5136 9.4516 14.6285 9.5179C14.7433 9.58419 14.8272 9.6934 14.8615 9.8215C14.8959 9.9496 14.8779 10.0861 14.8116 10.201C14.7453 10.3158 14.6361 10.3997 14.508 10.434L13.625 10.671L14.745 11.317C14.8589 11.3838 14.9418 11.4929 14.9755 11.6205C15.0093 11.7482 14.9912 11.884 14.9251 11.9983C14.8591 12.1127 14.7506 12.1963 14.6231 12.2309C14.4957 12.2655 14.3598 12.2483 14.245 12.183L13.125 11.537L13.361 12.42C13.3792 12.4838 13.3845 12.5506 13.3766 12.6165C13.3687 12.6824 13.3478 12.7461 13.3151 12.8038C13.2823 12.8615 13.2384 12.9122 13.1859 12.9527C13.1334 12.9933 13.0733 13.023 13.0092 13.0402C12.9451 13.0573 12.8782 13.0615 12.8124 13.0525C12.7467 13.0435 12.6834 13.0215 12.6262 12.9878C12.569 12.9541 12.5192 12.9093 12.4795 12.8561C12.4398 12.803 12.4111 12.7424 12.395 12.678L11.9 10.829L8.50001 8.866V12.793L9.85301 14.146C9.94689 14.2398 9.99969 14.367 9.99979 14.4996C9.99988 14.6323 9.94726 14.7596 9.85351 14.8535C9.75976 14.9474 9.63254 15.0002 9.49986 15.0003C9.36718 15.0004 9.23989 14.9478 9.14601 14.854L8.49901 14.207V15.5C8.49901 15.6326 8.44633 15.7598 8.35256 15.8536C8.25879 15.9473 8.13262 16 8.00001 16Z" fill="#222222"/>
</svg>
