<svg width="35" height="35" viewBox="0 0 35 35" fill="none" xmlns="http://www.w3.org/2000/svg">
<path d="M31.7188 28.4375H3.28125C2.99117 28.4375 2.71297 28.3223 2.50785 28.1171C2.30273 27.912 2.1875 27.6338 2.1875 27.3438V8.75C2.1875 8.45992 2.30273 8.18172 2.50785 7.9766C2.71297 7.77148 2.99117 7.65625 3.28125 7.65625H10.3469L12.2172 4.86719C12.3163 4.71673 12.451 4.59308 12.6094 4.50721C12.7677 4.42135 12.9449 4.37593 13.125 4.375H21.875C22.0551 4.37593 22.2323 4.42135 22.3906 4.50721C22.549 4.59308 22.6837 4.71673 22.7828 4.86719L24.6531 7.65625H31.7188C32.0088 7.65625 32.287 7.77148 32.4921 7.9766C32.6973 8.18172 32.8125 8.45992 32.8125 8.75V27.3438C32.8125 27.6338 32.6973 27.912 32.4921 28.1171C32.287 28.3223 32.0088 28.4375 31.7188 28.4375ZM4.375 26.25H30.625V9.84375H24.0625C23.8824 9.84282 23.7052 9.7974 23.5469 9.71154C23.3885 9.62567 23.2538 9.50202 23.1547 9.35156L21.2844 6.5625H13.7156L11.8453 9.35156C11.7462 9.50202 11.6115 9.62567 11.4531 9.71154C11.2948 9.7974 11.1176 9.84282 10.9375 9.84375H4.375V26.25Z" fill="#BBBBBB"/>
<path d="M17.5 24.0625C16.2021 24.0625 14.9333 23.6776 13.8541 22.9565C12.7749 22.2354 11.9337 21.2105 11.437 20.0114C10.9403 18.8122 10.8104 17.4927 11.0636 16.2197C11.3168 14.9467 11.9418 13.7774 12.8596 12.8596C13.7774 11.9418 14.9467 11.3168 16.2197 11.0636C17.4927 10.8104 18.8122 10.9403 20.0114 11.437C21.2105 11.9337 22.2354 12.7749 22.9565 13.8541C23.6776 14.9333 24.0625 16.2021 24.0625 17.5C24.0625 19.2405 23.3711 20.9097 22.1404 22.1404C20.9097 23.3711 19.2405 24.0625 17.5 24.0625ZM17.5 13.125C16.6347 13.125 15.7888 13.3816 15.0694 13.8623C14.3499 14.3431 13.7892 15.0263 13.458 15.8258C13.1269 16.6252 13.0403 17.5049 13.2091 18.3535C13.3779 19.2022 13.7946 19.9817 14.4064 20.5936C15.0183 21.2054 15.7978 21.6221 16.6465 21.7909C17.4951 21.9597 18.3748 21.8731 19.1742 21.542C19.9737 21.2108 20.6569 20.6501 21.1377 19.9306C21.6184 19.2112 21.875 18.3653 21.875 17.5C21.875 16.3397 21.4141 15.2269 20.5936 14.4064C19.7731 13.5859 18.6603 13.125 17.5 13.125Z" fill="#BBBBBB"/>
</svg>
