<?xml version="1.0" encoding="UTF-8"?><svg xmlns="http://www.w3.org/2000/svg" viewBox="0 0 555.11 710.48"><g style="isolation:isolate;"><g id="Layer_1"><path d="M99.66,503.56c14.65-1.21,25.76-5.38,26.59-5.7,1.92-.74,2.88-2.89,2.15-4.81-.74-1.92-2.9-2.88-4.81-2.15-.34.13-34.64,12.94-60.74-1.11-13.89-7.48-23.16-21.35-27.56-41.23-.45-2.01-2.43-3.28-4.45-2.83-2.01.45-3.28,2.44-2.83,4.45,4.9,22.11,15.45,37.65,31.35,46.2,13.28,7.14,28.04,8.2,40.31,7.19Z" style="fill:#231f20; stroke-width:0px;"/><path d="M371.13,560.69c-12.72-7.38-20.96-15.91-21.58-16.55-1.42-1.49-1.36-3.85.13-5.27,1.49-1.42,3.85-1.36,5.27.12.25.26,25.74,26.55,55.35,25.05,15.75-.8,30.08-9.35,42.58-25.42,1.27-1.62,3.6-1.92,5.23-.65,1.62,1.26,1.92,3.61.65,5.23-13.91,17.87-30.1,27.39-48.14,28.29-15.06.75-28.85-4.62-39.5-10.8Z" style="fill:#231f20; stroke-width:0px;"/><ellipse cx="218.3" cy="690.74" rx="163.24" ry="19.74" style="fill:#92525b; mix-blend-mode:multiply; opacity:.3; stroke-width:0px;"/><path d="M189.08,692.13c-.2,0-.41-.01-.61-.04-2.87-.33-4.93-2.93-4.59-5.8l24.99-214.4c.33-2.87,2.95-4.92,5.8-4.59,2.87.34,4.93,2.93,4.59,5.8l-24.99,214.41c-.31,2.67-2.57,4.63-5.19,4.63Z" style="fill:#231f20; stroke-width:0px;"/><path d="M251.44,692.13c-.3,0-.6-.03-.9-.08-2.85-.5-4.75-3.21-4.26-6.05l41.7-239.37c.5-2.85,3.22-4.75,6.05-4.26,2.85.5,4.75,3.21,4.26,6.05l-41.7,239.36c-.44,2.54-2.65,4.34-5.15,4.34Z" style="fill:#231f20; stroke-width:0px;"/><path d="M308.95,693.7c-1.53,0-3.09-.41-4.49-1.28-.26-.16-11.55-6.89-26.39-6.89-12.65,0-17.57,4.89-17.61,4.94-2.95,3.7-8.33,4.3-12.03,1.36-3.7-2.95-4.3-8.33-1.36-12.03.93-1.17,9.7-11.39,31-11.39,20.01,0,34.8,9.08,35.42,9.46,4.01,2.5,5.24,7.78,2.74,11.79-1.62,2.6-4.42,4.04-7.27,4.04Z" style="fill:#231f20; stroke-width:0px;"/><path d="M187.1,693.7c-1.53,0-3.09-.41-4.49-1.28-.26-.16-11.55-6.89-26.39-6.89-12.65,0-17.57,4.89-17.61,4.94-2.95,3.7-8.33,4.3-12.03,1.36-3.7-2.95-4.3-8.33-1.36-12.03.93-1.17,9.7-11.39,31-11.39,20.01,0,34.8,9.08,35.42,9.46,4.01,2.5,5.24,7.78,2.74,11.79-1.62,2.6-4.42,4.04-7.27,4.04Z" style="fill:#231f20; stroke-width:0px;"/><path d="M555.1,277.56c0,24.69-3.24,48.64-9.24,71.38-31.51,118.67-139.72,206.17-268.31,206.17S31.57,460.05,5.67,333.63c-3.71-18.08-5.67-36.84-5.67-56.06,0-1.82,0-3.64.07-5.46C2.97,121.31,126.09.01,277.55.01s265.81,112.87,276.74,256.1v.07c.54,7.08.81,14.17.81,21.39Z" style="fill:#e08957; stroke-width:0px;"/><path d="M555.11,277.56c0,24.71-3.25,48.66-9.25,71.39-5.56,20.95-13.51,40.93-23.59,59.64-50.32,70.48-132.8,116.43-226,116.43-134.06,0-245.98-95.05-271.89-221.49-3.68-18.06-5.67-36.81-5.67-56.07,0-1.81,0-3.61.07-5.45.9-45.41,12.68-88.18,32.87-125.72C101.97,45.88,184.41,0,277.55,0c146.06,0,265.82,112.89,276.73,256.1v.07c.54,7.08.83,14.16.83,21.39Z" style="fill:#f9a776; stroke-width:0px;"/><circle cx="201.05" cy="464.99" r="27.1" transform="translate(-188.57 141.21) rotate(-26.89)" style="fill:#7b3536; stroke-width:0px;"/><circle cx="376.18" cy="92.31" r="27.1" transform="translate(267.04 463.96) rotate(-87.42)" style="fill:#7b3536; stroke-width:0px;"/><path d="M449.9,183.24c5.99,1.78,9.4,8.07,7.63,14.06-1.78,5.99-8.07,9.4-14.06,7.63-5.99-1.78-9.4-8.07-7.63-14.06,1.78-5.99,8.07-9.4,14.06-7.63Z" style="fill:#7b3536; stroke-width:0px;"/><path d="M334.29,110.93c5.99,1.78,9.4,8.07,7.63,14.06-1.78,5.99-8.07,9.4-14.06,7.63-5.99-1.78-9.4-8.07-7.63-14.06,1.78-5.99,8.07-9.4,14.06-7.63Z" style="fill:#7b3536; stroke-width:0px;"/><path d="M492.01,162.88c10.61,1.46,16.66,12.63,12.1,22.31-2.84,6.04-9.55,9.67-16.16,8.76-10.61-1.46-16.66-12.63-12.1-22.31,2.84-6.03,9.55-9.67,16.16-8.76Z" style="fill:#7b3536; stroke-width:0px;"/><circle cx="79.25" cy="273.97" r="33.99" transform="translate(-99.25 51.53) rotate(-22.61)" style="fill:#7b3536; stroke-width:0px;"/><circle cx="92.14" cy="182.77" r="16.61" transform="translate(-75.53 65.37) rotate(-28.25)" style="fill:#7b3536; stroke-width:0px;"/><circle cx="378.52" cy="467.73" r="14.38" transform="translate(-183.2 683.41) rotate(-72.02)" style="fill:#7b3536; stroke-width:0px;"/><circle cx="492.26" cy="243.81" r="30.15" transform="translate(-52.69 174.57) rotate(-19.11)" style="fill:#7b3536; stroke-width:0px;"/><circle cx="369.13" cy="307.71" r="54.78" transform="translate(-30.49 574.62) rotate(-73.55)" style="fill:#fff; stroke-width:0px;"/><circle cx="364.39" cy="305.58" r="46.49" transform="translate(-46.64 66.38) rotate(-9.79)" style="fill:#231f20; stroke-width:0px;"/><circle cx="204.68" cy="267.89" r="54.78" transform="translate(-129.48 223.19) rotate(-45)" style="fill:#fff; stroke-width:0px;"/><circle cx="209.87" cy="268.17" r="46.49" transform="translate(-128.16 226.95) rotate(-45)" style="fill:#231f20; stroke-width:0px;"/><path d="M260.56,407.38c-1.29-.14-2.58-.37-3.87-.68-8.04-1.95-14.84-6.91-19.15-13.97-4.31-7.06-5.61-15.38-3.66-23.41.47-1.92,2.39-3.08,4.31-2.63,1.92.46,3.1,2.4,2.63,4.31-1.5,6.18-.5,12.58,2.82,18.01,3.31,5.43,8.54,9.25,14.73,10.74,12.73,3.09,25.66-4.78,28.75-17.55.46-1.92,2.39-3.09,4.31-2.63,1.92.46,3.1,2.4,2.63,4.31-3.71,15.3-18.26,25.19-33.51,23.49Z" style="fill:#231f20; stroke-width:0px;"/><path d="M417,242.55c-.81-.09-1.6-.46-2.21-1.11-7.6-8.12-18.88-14.31-31.77-17.43-12.35-2.99-24.81-2.79-35.07.57-1.88.61-3.9-.41-4.51-2.28-.61-1.87.41-3.89,2.28-4.51,11.5-3.77,25.34-4.02,38.98-.72,14.23,3.45,26.77,10.37,35.31,19.49,1.35,1.44,1.27,3.7-.17,5.05-.8.74-1.84,1.05-2.84.94Z" style="fill:#231f20; stroke-width:0px;"/><path d="M266.44,206.1c-.81-.09-1.6-.46-2.21-1.11-7.6-8.12-18.88-14.31-31.77-17.43-12.37-2.99-24.82-2.79-35.07.57-1.87.61-3.9-.41-4.51-2.28-.61-1.87.41-3.89,2.28-4.51,11.5-3.77,25.33-4.02,38.98-.72,14.23,3.44,26.77,10.37,35.31,19.49,1.35,1.44,1.27,3.7-.17,5.05-.8.74-1.84,1.05-2.84.94Z" style="fill:#231f20; stroke-width:0px;"/><path d="M336.68,271.69c-.8,7.19,4.63,13.7,12.14,14.54,7.51.84,14.25-4.31,15.05-11.5.8-7.19-4.63-13.7-12.14-14.54-7.51-.84-14.25,4.31-15.05,11.5Z" style="fill:#fff; stroke-width:0px;"/><path d="M179.27,233.9c-.8,7.19,4.63,13.7,12.14,14.54,7.51.84,14.25-4.31,15.05-11.5s-4.63-13.7-12.14-14.54c-7.51-.84-14.25,4.31-15.05,11.5Z" style="fill:#fff; stroke-width:0px;"/><path d="M454.13,544.23c-.11-.06-.21-.13-.32-.21-1.67-1.21-2.04-3.54-.84-5.21,40.26-55.62-29.14-132.5-29.85-133.27-1.39-1.52-1.29-3.88.23-5.27,1.52-1.39,3.87-1.29,5.27.23,3.05,3.33,74.23,82.13,30.4,142.69-1.13,1.56-3.25,1.99-4.89,1.04Z" style="fill:#231f20; stroke-width:0px;"/><path d="M429.17,399.48c-.2-.23-.43-.44-.69-.62l-26.72-18.54c-1.64-1.14-3.9-.73-5.04.91-1.14,1.64-.74,3.9.91,5.04l26.72,18.54c1.64,1.14,3.9.73,5.04-.91.96-1.38.82-3.2-.22-4.42Z" style="fill:#231f20; stroke-width:0px;"/><path d="M417.53,365.16c-.94-1.09-2.47-1.57-3.92-1.08-1.89.64-2.91,2.7-2.27,4.59l11.64,34.31c.65,1.91,2.7,2.91,4.59,2.27,1.89-.64,2.91-2.7,2.27-4.59l-11.64-34.31c-.15-.45-.39-.85-.68-1.19Z" style="fill:#231f20; stroke-width:0px;"/><path d="M443.76,373.03c-.28-.32-.61-.6-1-.82-1.75-.97-3.95-.33-4.92,1.42l-14.59,26.44c-.97,1.75-.32,3.96,1.42,4.92,1.75.97,3.95.33,4.92-1.42l14.59-26.44c.75-1.36.53-2.99-.42-4.1Z" style="fill:#231f20; stroke-width:0px;"/><path d="M429.18,399.48c-.8-.94-2.07-1.44-3.38-1.22l-28.9,5.05c-1.97.34-3.29,2.22-2.94,4.19.35,1.98,2.22,3.29,4.19,2.95l28.9-5.05c1.97-.34,3.29-2.22,2.94-4.19-.12-.66-.41-1.25-.81-1.73Z" style="fill:#231f20; stroke-width:0px;"/><path d="M31.74,453.08c.13-.01.25-.03.38-.05,2.02-.38,3.36-2.32,2.99-4.34-12.51-67.52,83.16-107.2,84.13-107.59,1.91-.77,2.83-2.95,2.05-4.85-.77-1.91-2.95-2.83-4.85-2.05-4.18,1.7-102.28,42.35-88.66,115.86.35,1.9,2.09,3.19,3.97,3.04Z" style="fill:#231f20; stroke-width:0px;"/><path d="M116.37,333.03c.28-.12.57-.21.89-.27l32.09-5.29c1.97-.33,3.84,1.01,4.16,2.98.32,1.97-1.01,3.84-2.98,4.16l-32.09,5.29c-1.97.33-3.84-1.01-4.16-2.98-.27-1.66.63-3.24,2.1-3.9Z" style="fill:#231f20; stroke-width:0px;"/><path d="M141.61,307.03c1.31-.59,2.91-.35,4,.71,1.44,1.39,1.47,3.69.08,5.12l-25.24,26c-1.4,1.44-3.69,1.47-5.12.08-1.44-1.39-1.47-3.69-.08-5.12l25.24-26c.33-.34.71-.6,1.12-.78Z" style="fill:#231f20; stroke-width:0px;"/><path d="M114.53,302.88c.39-.17.81-.28,1.26-.31,2-.12,3.71,1.4,3.83,3.39l1.84,30.15c.12,2-1.4,3.71-3.39,3.84-2,.12-3.71-1.4-3.83-3.39l-1.84-30.15c-.09-1.55.8-2.93,2.14-3.53Z" style="fill:#231f20; stroke-width:0px;"/><path d="M116.37,333.03c1.13-.5,2.49-.42,3.57.35l23.95,16.95c1.63,1.16,2.02,3.42.86,5.05-1.16,1.64-3.42,2.02-5.05.86l-23.95-16.95c-1.63-1.16-2.02-3.42-.86-5.05.39-.55.9-.96,1.48-1.21Z" style="fill:#231f20; stroke-width:0px;"/></g></g></svg>