<svg width="434" height="340" viewBox="0 0 434 340" fill="none" xmlns="http://www.w3.org/2000/svg">
<mask id="mask0_1016_584" style="mask-type:luminance" maskUnits="userSpaceOnUse" x="-142" y="-104" width="539" height="416">
<path d="M351.471 134.436C282.628 208.54 204.606 262.059 117.406 294.993C30.2057 327.927 -39.7046 310.121 -92.3247 241.576C-144.945 173.03 -155.428 100.924 -123.774 25.2556C-92.1198 -50.4124 -32.7873 -92.7252 54.2234 -101.683C141.234 -110.64 229.739 -92.0527 319.737 -45.9201C409.736 0.212549 420.313 60.3311 351.471 134.436Z" fill="white"/>
</mask>
<g mask="url(#mask0_1016_584)">
<path d="M351.471 134.436C282.628 208.54 204.606 262.059 117.406 294.993C30.2057 327.927 -39.7046 310.121 -92.3247 241.576C-144.945 173.03 -155.428 100.924 -123.774 25.2556C-92.1198 -50.4124 -32.7873 -92.7252 54.2234 -101.683C141.234 -110.64 229.739 -92.0527 319.737 -45.9201C409.736 0.212549 420.313 60.3311 351.471 134.436Z" fill="#444CF7"/>
</g>
</svg>
