<?xml version="1.0" encoding="iso-8859-1"?>
<!-- Uploaded to: SVG Repo, www.svgrepo.com, Generator: SVG Repo Mixer Tools -->
<svg fill="#000000" height="800px" width="800px" version="1.1" id="Layer_1" xmlns="http://www.w3.org/2000/svg" xmlns:xlink="http://www.w3.org/1999/xlink" 
	 viewBox="0 0 512 512" xml:space="preserve">
<g>
	<g>
		<path d="M493.297,159.693c-12.477-30.878-31.231-59.828-56.199-84.792c-24.964-24.967-53.914-43.722-84.793-56.199
			C321.426,6.222,288.617,0,255.823,0c-32.748,0-65.497,6.249-96.315,18.743c-30.814,12.491-59.695,31.244-84.607,56.159
			c-24.915,24.912-43.668,53.793-56.158,84.607C6.25,190.325,0.001,223.073,0.001,255.823c0,32.794,6.222,65.602,18.701,96.484
			c12.477,30.878,31.231,59.828,56.199,84.793c24.964,24.967,53.914,43.722,84.792,56.199c30.882,12.48,63.69,18.701,96.484,18.701
			c32.748,0,65.497-6.249,96.314-18.743c30.814-12.49,59.695-31.242,84.607-56.158c24.917-24.913,43.67-53.794,56.16-84.608
			c12.493-30.817,18.743-63.566,18.743-96.315C511.999,223.383,505.778,190.575,493.297,159.693z M461.611,339.661
			c-10.821,26.683-27.019,51.648-48.659,73.291c-21.643,21.64-46.608,37.837-73.292,48.657
			c-26.679,10.818-55.078,16.241-83.484,16.241c-28.477,0-56.947-5.405-83.688-16.213c-26.744-10.813-51.76-27.007-73.441-48.685
			c-21.678-21.682-37.873-46.697-48.685-73.441C39.554,312.77,34.149,284.3,34.149,255.823c0-28.406,5.423-56.804,16.241-83.484
			c10.821-26.683,27.018-51.648,48.659-73.291c21.643-21.64,46.608-37.837,73.291-48.659c26.679-10.818,55.078-16.241,83.484-16.241
			c28.477,0,56.947,5.405,83.688,16.214c26.744,10.813,51.76,27.008,73.441,48.685c21.677,21.681,37.873,46.697,48.685,73.441
			c10.808,26.741,16.214,55.211,16.214,83.688C477.852,284.583,472.429,312.981,461.611,339.661z"/>
	</g>
</g>
<g>
	<g>
		<path d="M385.946,126.055c-6.524-6.525-17.102-6.525-23.626,0l-36.278,36.278c-7.82-5.861-16.298-10.691-25.249-14.389
			c-14.036-5.803-29.225-8.832-44.792-8.83c-15.572-0.002-30.761,3.027-44.797,8.83c-14.037,5.799-26.917,14.372-37.901,25.36
			c-11.376,11.375-19.956,24.598-25.656,38.689c-5.704,14.094-8.547,29.054-8.548,44.007c0,14.954,2.843,29.914,8.548,44.007
			c3.693,9.131,8.603,17.892,14.691,26.027l-36.285,36.285c-6.524,6.524-6.524,17.102,0,23.627c6.525,6.524,17.102,6.524,23.627,0
			l36.278-36.278c7.82,5.861,16.298,10.691,25.249,14.389c14.036,5.803,29.225,8.832,44.792,8.83
			c15.572,0.002,30.761-3.027,44.797-8.83c14.037-5.799,26.917-14.372,37.901-25.359c11.376-11.375,19.955-24.599,25.656-38.689
			c5.704-14.094,8.547-29.054,8.548-44.007c0-14.954-2.843-29.914-8.548-44.008c-3.693-9.131-8.603-17.892-14.691-26.027
			l36.285-36.285C392.47,143.157,392.47,132.579,385.946,126.055z M178.621,287.472c-4.066-10.044-6.108-20.754-6.107-31.471
			c0-10.717,2.042-21.428,6.107-31.472c4.07-10.047,10.146-19.431,18.31-27.599c7.908-7.906,17.06-13.98,27.036-18.106
			c9.978-4.122,20.783-6.295,32.033-6.296c11.245,0.002,22.051,2.174,32.03,6.297c4.897,2.025,9.593,4.525,14.044,7.476
			L186.305,302.069C183.229,297.418,180.669,292.53,178.621,287.472z M333.38,287.472c-4.07,10.047-10.146,19.431-18.31,27.599
			c-7.908,7.906-17.06,13.98-27.036,18.106c-9.978,4.122-20.783,6.295-32.033,6.296c-11.245-0.002-22.05-2.174-32.03-6.297
			c-4.897-2.025-9.593-4.526-14.044-7.476l115.769-115.769c3.076,4.651,5.636,9.539,7.684,14.597
			c4.066,10.044,6.108,20.754,6.107,31.472C339.488,266.717,337.446,277.427,333.38,287.472z"/>
	</g>
</g>
</svg>