<svg width="19" height="19" viewBox="0 0 19 19" fill="none" xmlns="http://www.w3.org/2000/svg">
<path d="M10.5834 11.0843V5.11456M10.5834 11.0843L15.1368 13.6863C15.2048 13.7253 15.2819 13.7457 15.3603 13.7455C15.4387 13.7453 15.5157 13.7245 15.5835 13.6852C15.6514 13.6459 15.7077 13.5895 15.7469 13.5216C15.7861 13.4537 15.8068 13.3767 15.8069 13.2983V2.90054C15.8069 2.82208 15.7863 2.74499 15.7472 2.67699C15.708 2.60899 15.6517 2.55247 15.5838 2.5131C15.516 2.47372 15.439 2.45287 15.3605 2.45264C15.282 2.4524 15.2049 2.47279 15.1368 2.51176L10.5834 5.11456M10.5834 11.0843H5.35986M10.5834 5.11456H5.35986C4.56823 5.11456 3.80902 5.42904 3.24925 5.98881C2.68948 6.54858 2.375 7.30779 2.375 8.09943C2.375 8.89106 2.68948 9.65027 3.24925 10.21C3.80902 10.7698 4.56823 11.0843 5.35986 11.0843M5.35986 11.0843L5.92475 15.0392C5.98369 15.424 6.1921 15.77 6.5047 16.002C6.81729 16.234 7.20881 16.3332 7.59417 16.2782C7.97953 16.2231 8.3276 16.0182 8.56273 15.708C8.79787 15.3977 8.90107 15.0073 8.84991 14.6214L8.34473 11.0843H5.35986Z" stroke="#fff" stroke-width="1.11932"/>
</svg>
