<svg width="27" height="27" viewBox="0 0 27 27" fill="none" xmlns="http://www.w3.org/2000/svg">
<g opacity="0.75">
<path d="M20.8789 9.88999C20.8789 8.87983 20.6799 7.87957 20.2934 6.9463C19.9068 6.01304 19.3402 5.16506 18.6259 4.45077C17.9116 3.73648 17.0636 3.16987 16.1304 2.7833C15.1971 2.39673 14.1968 2.19777 13.1867 2.19777C12.1765 2.19777 11.1762 2.39673 10.243 2.7833C9.30972 3.16987 8.46173 3.73648 7.74744 4.45077C7.03316 5.16506 6.46655 6.01304 6.07998 6.9463C5.69341 7.87957 5.49445 8.87983 5.49445 9.88999C5.49445 11.4141 5.94389 12.8317 6.70872 14.0273H6.69993L13.1867 24.1755L19.6734 14.0273H19.6657C20.4579 12.7928 20.8789 11.3568 20.8789 9.88999ZM13.1867 13.1867C12.3123 13.1867 11.4738 12.8393 10.8556 12.2211C10.2373 11.6028 9.89 10.7643 9.89 9.88999C9.89 9.01566 10.2373 8.17714 10.8556 7.5589C11.4738 6.94065 12.3123 6.59332 13.1867 6.59332C14.061 6.59332 14.8995 6.94065 15.5178 7.5589C16.136 8.17714 16.4833 9.01566 16.4833 9.88999C16.4833 10.7643 16.136 11.6028 15.5178 12.2211C14.8995 12.8393 14.061 13.1867 13.1867 13.1867Z" fill="#2A2A2A"/>
</g>
</svg>
