<svg width="181" height="62" viewBox="0 0 181 62" fill="none" xmlns="http://www.w3.org/2000/svg">
<path d="M11.7 31.216C11.532 31.216 11.256 31.204 10.872 31.18C10.488 31.156 10.092 31.132 9.684 31.108C9.276 31.084 8.88 31.06 8.496 31.036C8.112 31.012 7.836 31 7.668 31L5.544 31C5.376 31 5.1 31.012 4.716 31.036C4.332 31.06 3.936 31.084 3.528 31.108C3.12 31.132 2.724 31.156 2.34 31.18C1.956 31.204 1.68 31.216 1.512 31.216L1.44 31.072L1.548 29.704L1.728 29.56C2.016 29.56 2.352 29.548 2.736 29.524C3.12 29.476 3.42 29.38 3.636 29.236C3.828 29.092 4.008 28.864 4.176 28.552C4.344 28.24 4.464 27.772 4.536 27.148C4.536 26.98 4.536 26.788 4.536 26.572C4.56 26.332 4.572 26.044 4.572 25.708C4.596 25.372 4.608 24.964 4.608 24.484C4.608 24.004 4.608 23.404 4.608 22.684L4.608 14.764C4.608 14.284 4.608 13.744 4.608 13.144C4.608 12.52 4.584 11.908 4.536 11.308C4.488 10.684 4.368 10.228 4.176 9.94C4.008 9.628 3.828 9.4 3.636 9.256C3.42 9.064 3.192 8.956 2.952 8.932C2.736 8.908 2.328 8.896 1.728 8.896L1.548 8.752L1.44 7.384L1.512 7.24C1.68 7.24 1.896 7.252 2.16 7.276C2.448 7.3 2.736 7.324 3.024 7.348C3.336 7.372 3.648 7.396 3.96 7.42C4.272 7.444 4.56 7.456 4.824 7.456L7.56 7.456C7.824 7.456 8.124 7.456 8.46 7.456C8.796 7.432 9.132 7.42 9.468 7.42C9.828 7.42 10.152 7.42 10.44 7.42C10.728 7.396 10.968 7.384 11.16 7.384C12.768 7.384 14.124 7.552 15.228 7.888C16.356 8.2 17.268 8.644 17.964 9.22C18.66 9.796 19.164 10.492 19.476 11.308C19.812 12.1 19.98 12.976 19.98 13.936C19.98 15.544 19.692 16.864 19.116 17.896C18.54 18.928 17.796 19.744 16.884 20.344C15.996 20.944 14.988 21.364 13.86 21.604C12.756 21.82 11.676 21.928 10.62 21.928L8.604 21.928C8.604 22.408 8.604 22.912 8.604 23.44C8.604 23.968 8.604 24.484 8.604 24.988C8.628 25.468 8.64 25.9 8.64 26.284C8.664 26.668 8.688 26.956 8.712 27.148C8.76 27.844 8.88 28.336 9.072 28.624C9.264 28.888 9.432 29.08 9.576 29.2C9.792 29.392 10.008 29.5 10.224 29.524C10.464 29.548 10.896 29.56 11.52 29.56L11.664 29.704L11.772 31.072L11.7 31.216ZM10.44 19.264C12.456 19.264 13.896 18.808 14.76 17.896C15.624 16.984 16.056 15.724 16.056 14.116C16.056 12.82 15.552 11.86 14.544 11.236C13.56 10.588 12.204 10.264 10.476 10.264L8.784 10.264C8.712 11.32 8.664 12.112 8.64 12.64C8.616 13.144 8.604 13.6 8.604 14.008L8.604 17.932C8.604 18.244 8.616 18.496 8.64 18.688C8.664 18.856 8.724 18.988 8.82 19.084C8.916 19.156 9.048 19.204 9.216 19.228C9.408 19.252 9.66 19.264 9.972 19.264L10.44 19.264ZM30.4715 13.9C31.8875 13.9 33.1475 14.152 34.2515 14.656C35.3555 15.136 36.2795 15.796 37.0235 16.636C37.7915 17.452 38.3675 18.4 38.7515 19.48C39.1595 20.56 39.3635 21.676 39.3635 22.828C39.3635 23.932 39.1835 25 38.8235 26.032C38.4635 27.064 37.9115 27.976 37.1675 28.768C36.4235 29.56 35.4995 30.196 34.3955 30.676C33.2915 31.156 32.0075 31.396 30.5435 31.396C29.0315 31.396 27.7115 31.144 26.5835 30.64C25.4555 30.136 24.5195 29.476 23.7755 28.66C23.0555 27.844 22.5155 26.92 22.1555 25.888C21.7955 24.832 21.6155 23.752 21.6155 22.648C21.6155 21.472 21.8195 20.356 22.2275 19.3C22.6355 18.244 23.2115 17.32 23.9555 16.528C24.7235 15.712 25.6475 15.076 26.7275 14.62C27.8315 14.14 29.0795 13.9 30.4715 13.9ZM30.5075 28.912C31.2515 28.912 31.8995 28.744 32.4515 28.408C33.0275 28.048 33.5075 27.592 33.8915 27.04C34.2755 26.464 34.5515 25.816 34.7195 25.096C34.9115 24.352 35.0075 23.596 35.0075 22.828C35.0075 22.084 34.8995 21.34 34.6835 20.596C34.4915 19.828 34.1915 19.144 33.7835 18.544C33.3995 17.944 32.9195 17.452 32.3435 17.068C31.7675 16.684 31.1075 16.492 30.3635 16.492C29.5955 16.492 28.9235 16.672 28.3475 17.032C27.7955 17.392 27.3395 17.86 26.9795 18.436C26.6195 19.012 26.3435 19.66 26.1515 20.38C25.9835 21.1 25.8995 21.832 25.8995 22.576C25.8995 23.344 25.9955 24.1 26.1875 24.844C26.4035 25.588 26.7035 26.272 27.0875 26.896C27.4955 27.496 27.9875 27.988 28.5635 28.372C29.1395 28.732 29.7875 28.912 30.5075 28.912ZM50.6486 31.144C50.4806 31.144 50.2286 31.132 49.8926 31.108C49.5566 31.084 49.1966 31.06 48.8126 31.036C48.4286 31.036 48.0686 31.024 47.7326 31C47.3966 31 47.1446 31 46.9766 31L45.0326 31C44.8646 31 44.6006 31 44.2406 31C43.9046 31.024 43.5446 31.036 43.1606 31.036C42.8006 31.06 42.4406 31.084 42.0806 31.108C41.7446 31.132 41.4926 31.144 41.3246 31.144L41.2886 31L41.3606 29.776L41.4686 29.632C41.8286 29.632 42.2006 29.62 42.5846 29.596C42.9686 29.548 43.2566 29.428 43.4486 29.236C43.6166 29.068 43.7366 28.852 43.8086 28.588C43.8806 28.324 43.9406 27.952 43.9886 27.472C44.0126 27.304 44.0246 27.136 44.0246 26.968C44.0486 26.8 44.0606 26.62 44.0606 26.428C44.0846 26.236 44.0966 26.008 44.0966 25.744C44.0966 25.48 44.0966 25.156 44.0966 24.772L44.0966 10.768C44.0966 10.312 44.0966 9.952 44.0966 9.688C44.0966 9.4 44.0846 9.16 44.0606 8.968C44.0606 8.776 44.0486 8.608 44.0246 8.464C44.0246 8.296 44.0126 8.104 43.9886 7.888C43.9406 7.648 43.8686 7.42 43.7726 7.204C43.6766 6.988 43.5926 6.844 43.5206 6.772C43.2806 6.46 42.9806 6.28 42.6206 6.232C42.2606 6.184 41.8886 6.16 41.5046 6.16L41.3606 6.016L41.3606 4.792L41.5046 4.684L43.3406 4.684C43.8926 4.684 44.4806 4.684 45.1046 4.684C45.7286 4.66 46.2806 4.612 46.7606 4.54L48.0206 4.36L48.2366 5.044C48.1886 5.14 48.1406 5.296 48.0926 5.512C48.0686 5.704 48.0446 5.92 48.0206 6.16C48.0206 6.376 48.0086 6.604 47.9846 6.844C47.9846 7.06 47.9846 7.24 47.9846 7.384C47.9846 7.576 47.9726 7.756 47.9486 7.924C47.9486 8.068 47.9486 8.248 47.9486 8.464C47.9486 8.656 47.9366 8.908 47.9126 9.22C47.9126 9.532 47.9126 9.916 47.9126 10.372L47.9126 24.34C47.9126 24.82 47.9126 25.216 47.9126 25.528C47.9366 25.816 47.9486 26.068 47.9486 26.284C47.9726 26.5 47.9846 26.704 47.9846 26.896C48.0086 27.064 48.0326 27.256 48.0566 27.472C48.1046 27.976 48.1526 28.36 48.2006 28.624C48.2726 28.864 48.4046 29.068 48.5966 29.236C48.7886 29.428 49.0526 29.548 49.3886 29.596C49.7486 29.62 50.1086 29.632 50.4686 29.632L50.6486 29.812L50.7206 31L50.6486 31.144ZM61.3713 31.144C61.2033 31.144 60.9513 31.132 60.6153 31.108C60.2793 31.084 59.9193 31.06 59.5353 31.036C59.1513 31.036 58.7913 31.024 58.4553 31C58.1193 31 57.8673 31 57.6993 31L55.7553 31C55.5873 31 55.3233 31 54.9633 31C54.6273 31.024 54.2673 31.036 53.8833 31.036C53.5233 31.06 53.1633 31.084 52.8033 31.108C52.4673 31.132 52.2153 31.144 52.0473 31.144L52.0113 31L52.0833 29.776L52.1913 29.632C52.5513 29.632 52.9233 29.62 53.3073 29.596C53.6913 29.548 53.9793 29.428 54.1713 29.236C54.3393 29.068 54.4593 28.852 54.5313 28.588C54.6033 28.324 54.6633 27.952 54.7113 27.472C54.7353 27.304 54.7473 27.136 54.7473 26.968C54.7713 26.8 54.7833 26.62 54.7833 26.428C54.8073 26.236 54.8193 26.008 54.8193 25.744C54.8193 25.48 54.8193 25.156 54.8193 24.772L54.8193 10.768C54.8193 10.312 54.8193 9.952 54.8193 9.688C54.8193 9.4 54.8073 9.16 54.7833 8.968C54.7833 8.776 54.7713 8.608 54.7473 8.464C54.7473 8.296 54.7353 8.104 54.7113 7.888C54.6633 7.648 54.5913 7.42 54.4953 7.204C54.3993 6.988 54.3153 6.844 54.2433 6.772C54.0033 6.46 53.7033 6.28 53.3433 6.232C52.9833 6.184 52.6113 6.16 52.2273 6.16L52.0833 6.016L52.0833 4.792L52.2273 4.684L54.0633 4.684C54.6153 4.684 55.2033 4.684 55.8273 4.684C56.4513 4.66 57.0033 4.612 57.4833 4.54L58.7433 4.36L58.9593 5.044C58.9113 5.14 58.8633 5.296 58.8153 5.512C58.7913 5.704 58.7673 5.92 58.7433 6.16C58.7433 6.376 58.7313 6.604 58.7073 6.844C58.7073 7.06 58.7073 7.24 58.7073 7.384C58.7073 7.576 58.6953 7.756 58.6713 7.924C58.6713 8.068 58.6713 8.248 58.6713 8.464C58.6713 8.656 58.6593 8.908 58.6353 9.22C58.6353 9.532 58.6353 9.916 58.6353 10.372L58.6353 24.34C58.6353 24.82 58.6353 25.216 58.6353 25.528C58.6593 25.816 58.6713 26.068 58.6713 26.284C58.6953 26.5 58.7073 26.704 58.7073 26.896C58.7313 27.064 58.7553 27.256 58.7793 27.472C58.8273 27.976 58.8753 28.36 58.9233 28.624C58.9953 28.864 59.1273 29.068 59.3193 29.236C59.5113 29.428 59.7753 29.548 60.1113 29.596C60.4713 29.62 60.8313 29.632 61.1913 29.632L61.3713 29.812L61.4433 31L61.3713 31.144ZM77.3139 27.904C76.6659 28.936 75.8619 29.776 74.9019 30.424C73.9419 31.072 72.7299 31.396 71.2659 31.396C70.5939 31.396 69.9339 31.312 69.2859 31.144C68.6619 30.976 68.0859 30.712 67.5579 30.352C67.0539 29.992 66.6099 29.524 66.2259 28.948C65.8419 28.348 65.5659 27.628 65.3979 26.788C65.3499 26.572 65.3019 26.332 65.2539 26.068C65.2299 25.804 65.2059 25.468 65.1819 25.06C65.1819 24.628 65.1699 24.112 65.1459 23.512C65.1459 22.888 65.1459 22.12 65.1459 21.208L65.1459 17.968C65.1459 17.704 65.0859 17.44 64.9659 17.176C64.8459 16.912 64.7499 16.744 64.6779 16.672C64.4379 16.384 64.1379 16.216 63.7779 16.168C63.4179 16.12 63.0459 16.096 62.6619 16.096L62.5539 15.952L62.5539 14.728L62.6619 14.62L64.4259 14.62C64.9779 14.62 65.5659 14.62 66.1899 14.62C66.8139 14.596 67.3659 14.548 67.8459 14.476L69.1059 14.296L69.3219 14.98C69.2739 15.076 69.2379 15.256 69.2139 15.52C69.1899 15.76 69.1659 16.024 69.1419 16.312C69.1179 16.6 69.1059 16.876 69.1059 17.14C69.1059 17.404 69.1059 17.608 69.1059 17.752C69.1059 18.064 69.0939 18.448 69.0699 18.904C69.0699 19.336 69.0579 19.792 69.0339 20.272C69.0339 20.728 69.0219 21.172 68.9979 21.604C68.9979 22.036 68.9979 22.396 68.9979 22.684C68.9979 23.308 69.0219 23.944 69.0699 24.592C69.1179 25.216 69.2139 25.792 69.3579 26.32C69.5979 27.16 69.9579 27.784 70.4379 28.192C70.9419 28.576 71.6379 28.768 72.5259 28.768C73.2459 28.768 73.8819 28.648 74.4339 28.408C75.0099 28.168 75.5019 27.88 75.9099 27.544C76.3179 27.208 76.6539 26.848 76.9179 26.464C77.1819 26.056 77.3499 25.696 77.4219 25.384L77.4219 21.784C77.4219 20.68 77.3979 19.828 77.3499 19.228C77.3259 18.628 77.2899 18.16 77.2419 17.824C77.1939 17.512 77.1219 17.26 77.0259 17.068C76.9539 16.876 76.8819 16.744 76.8099 16.672C76.5459 16.384 76.2099 16.216 75.8019 16.168C75.3939 16.12 75.0699 16.096 74.8299 16.096L74.6859 15.952L74.6859 14.728L74.8299 14.62L75.4779 14.62C75.7179 14.62 76.0299 14.62 76.4139 14.62C76.8219 14.62 77.2419 14.62 77.6739 14.62C78.1059 14.596 78.5259 14.584 78.9339 14.584C79.3419 14.56 79.6899 14.524 79.9779 14.476L81.2379 14.296L81.4539 14.98C81.3339 15.676 81.2499 16.588 81.2019 17.716C81.1779 18.316 81.1539 18.808 81.1299 19.192C81.1299 19.552 81.1299 19.852 81.1299 20.092C81.1299 20.332 81.1299 20.524 81.1299 20.668C81.1299 20.788 81.1299 20.908 81.1299 21.028L81.1299 23.98C81.1299 25.3 81.1659 26.464 81.2379 27.472C81.2859 27.928 81.3459 28.3 81.4179 28.588C81.4899 28.852 81.6219 29.068 81.8139 29.236C82.0299 29.428 82.2819 29.548 82.5699 29.596C82.8579 29.62 83.2059 29.632 83.6139 29.632L83.7579 29.776L83.8299 31L83.7579 31.108C83.3019 31.06 82.8579 31.024 82.4259 31C81.9939 31 81.4899 31 80.9139 31C80.3379 31 79.7259 31 79.0779 31C78.4299 31.024 77.8059 31.06 77.2059 31.108L76.9899 30.388C77.0619 30.124 77.1339 29.776 77.2059 29.344C77.3019 28.888 77.3739 28.432 77.4219 27.976L77.3139 27.904ZM89.5179 26.104C88.2939 25.624 87.4059 24.868 86.8539 23.836C86.3019 22.804 86.0259 21.664 86.0259 20.416C86.0259 19.528 86.1819 18.688 86.4939 17.896C86.8059 17.104 87.2499 16.42 87.8259 15.844C88.4259 15.244 89.1339 14.776 89.9499 14.44C90.7899 14.104 91.7379 13.936 92.7939 13.936C93.4179 13.936 94.0299 13.996 94.6299 14.116C95.2539 14.236 95.7939 14.404 96.2499 14.62C97.2579 14.596 98.1939 14.536 99.0579 14.44C99.9459 14.344 100.774 14.188 101.542 13.972L101.722 14.116L101.47 16.816L101.29 16.996L98.5899 16.708L98.5539 16.816C98.9379 17.248 99.2379 17.824 99.4539 18.544C99.6699 19.264 99.7779 19.948 99.7779 20.596C99.7779 21.388 99.6219 22.144 99.3099 22.864C99.0219 23.584 98.5899 24.22 98.0139 24.772C97.4379 25.3 96.7179 25.732 95.8539 26.068C94.9899 26.38 93.9939 26.536 92.8659 26.536C92.7219 26.536 92.5299 26.536 92.2899 26.536C92.0739 26.512 91.9059 26.5 91.7859 26.5C91.3779 26.668 91.0659 26.896 90.8499 27.184C90.6579 27.472 90.5619 27.712 90.5619 27.904C90.5619 28.432 91.1259 28.768 92.2539 28.912L95.7459 29.272C96.5379 29.368 97.2699 29.536 97.9419 29.776C98.6379 30.016 99.2379 30.34 99.7419 30.748C100.27 31.132 100.678 31.6 100.966 32.152C101.254 32.728 101.398 33.388 101.398 34.132C101.398 34.828 101.242 35.524 100.93 36.22C100.618 36.94 100.15 37.576 99.5259 38.128C98.9019 38.656 98.0379 39.088 96.9339 39.424C95.8299 39.76 94.5579 39.928 93.1179 39.928C91.8219 39.928 90.6939 39.784 89.7339 39.496C88.7979 39.232 88.0059 38.86 87.3579 38.38C86.7339 37.924 86.2659 37.396 85.9539 36.796C85.6419 36.22 85.4859 35.62 85.4859 34.996C85.4859 33.988 85.8099 33.088 86.4579 32.296C87.1299 31.528 87.9819 30.988 89.0139 30.676L89.0499 30.568C88.4739 30.352 88.0059 30.088 87.6459 29.776C87.3099 29.44 87.1419 29.032 87.1419 28.552C87.1419 27.928 87.3939 27.424 87.8979 27.04C88.4019 26.656 88.9419 26.392 89.5179 26.248L89.5179 26.104ZM92.9379 24.052C93.4179 24.052 93.8379 23.956 94.1979 23.764C94.5819 23.572 94.9059 23.32 95.1699 23.008C95.4339 22.696 95.6259 22.336 95.7459 21.928C95.8899 21.496 95.9619 21.052 95.9619 20.596C95.9619 20.116 95.8899 19.636 95.7459 19.156C95.6019 18.676 95.3979 18.244 95.1339 17.86C94.8699 17.452 94.5339 17.128 94.1259 16.888C93.7179 16.624 93.2499 16.492 92.7219 16.492C92.2179 16.492 91.7859 16.612 91.4259 16.852C91.0659 17.068 90.7539 17.356 90.4899 17.716C90.2499 18.076 90.0699 18.484 89.9499 18.94C89.8299 19.396 89.7699 19.84 89.7699 20.272C89.7699 20.728 89.8299 21.184 89.9499 21.64C90.0939 22.096 90.2979 22.504 90.5619 22.864C90.8259 23.224 91.1499 23.512 91.5339 23.728C91.9419 23.944 92.4099 24.052 92.9379 24.052ZM91.7859 31.792C91.2579 31.816 90.8019 31.912 90.4179 32.08C90.0339 32.248 89.7099 32.464 89.4459 32.728C89.1819 33.016 88.9779 33.316 88.8339 33.628C88.7139 33.964 88.6539 34.288 88.6539 34.6C88.6539 35.296 89.0739 35.86 89.9139 36.292C90.7539 36.748 91.8939 36.976 93.3339 36.976C94.6299 36.976 95.7219 36.76 96.6099 36.328C97.4979 35.92 97.9419 35.308 97.9419 34.492C97.9419 34.036 97.8339 33.664 97.6179 33.376C97.4019 33.088 97.1139 32.848 96.7539 32.656C96.3939 32.488 95.9859 32.356 95.5299 32.26C95.0979 32.164 94.6539 32.092 94.1979 32.044L91.7859 31.792ZM117.462 27.904C116.814 28.936 116.01 29.776 115.05 30.424C114.09 31.072 112.878 31.396 111.414 31.396C110.742 31.396 110.082 31.312 109.434 31.144C108.81 30.976 108.234 30.712 107.706 30.352C107.202 29.992 106.758 29.524 106.374 28.948C105.99 28.348 105.714 27.628 105.546 26.788C105.498 26.572 105.45 26.332 105.402 26.068C105.378 25.804 105.354 25.468 105.33 25.06C105.33 24.628 105.318 24.112 105.294 23.512C105.294 22.888 105.294 22.12 105.294 21.208L105.294 17.968C105.294 17.704 105.234 17.44 105.114 17.176C104.994 16.912 104.898 16.744 104.826 16.672C104.586 16.384 104.286 16.216 103.926 16.168C103.566 16.12 103.194 16.096 102.81 16.096L102.702 15.952L102.702 14.728L102.81 14.62L104.574 14.62C105.126 14.62 105.714 14.62 106.338 14.62C106.962 14.596 107.514 14.548 107.994 14.476L109.254 14.296L109.47 14.98C109.422 15.076 109.386 15.256 109.362 15.52C109.338 15.76 109.314 16.024 109.29 16.312C109.266 16.6 109.254 16.876 109.254 17.14C109.254 17.404 109.254 17.608 109.254 17.752C109.254 18.064 109.242 18.448 109.218 18.904C109.218 19.336 109.206 19.792 109.182 20.272C109.182 20.728 109.17 21.172 109.146 21.604C109.146 22.036 109.146 22.396 109.146 22.684C109.146 23.308 109.17 23.944 109.218 24.592C109.266 25.216 109.362 25.792 109.506 26.32C109.746 27.16 110.106 27.784 110.586 28.192C111.09 28.576 111.786 28.768 112.674 28.768C113.394 28.768 114.03 28.648 114.582 28.408C115.158 28.168 115.65 27.88 116.058 27.544C116.466 27.208 116.802 26.848 117.066 26.464C117.33 26.056 117.498 25.696 117.57 25.384L117.57 21.784C117.57 20.68 117.546 19.828 117.498 19.228C117.474 18.628 117.438 18.16 117.39 17.824C117.342 17.512 117.27 17.26 117.174 17.068C117.102 16.876 117.03 16.744 116.958 16.672C116.694 16.384 116.358 16.216 115.95 16.168C115.542 16.12 115.218 16.096 114.978 16.096L114.834 15.952L114.834 14.728L114.978 14.62L115.626 14.62C115.866 14.62 116.178 14.62 116.562 14.62C116.97 14.62 117.39 14.62 117.822 14.62C118.254 14.596 118.674 14.584 119.082 14.584C119.49 14.56 119.838 14.524 120.126 14.476L121.386 14.296L121.602 14.98C121.482 15.676 121.398 16.588 121.35 17.716C121.326 18.316 121.302 18.808 121.278 19.192C121.278 19.552 121.278 19.852 121.278 20.092C121.278 20.332 121.278 20.524 121.278 20.668C121.278 20.788 121.278 20.908 121.278 21.028L121.278 23.98C121.278 25.3 121.314 26.464 121.386 27.472C121.434 27.928 121.494 28.3 121.566 28.588C121.638 28.852 121.77 29.068 121.962 29.236C122.178 29.428 122.43 29.548 122.718 29.596C123.006 29.62 123.354 29.632 123.762 29.632L123.906 29.776L123.978 31L123.906 31.108C123.45 31.06 123.006 31.024 122.574 31C122.142 31 121.638 31 121.062 31C120.486 31 119.874 31 119.226 31C118.578 31.024 117.954 31.06 117.354 31.108L117.138 30.388C117.21 30.124 117.282 29.776 117.354 29.344C117.45 28.888 117.522 28.432 117.57 27.976L117.462 27.904ZM135.966 30.748C136.038 30.532 136.086 30.22 136.11 29.812C136.158 29.404 136.218 29.032 136.29 28.696L136.254 28.588C135.966 28.948 135.63 29.296 135.246 29.632C134.886 29.968 134.478 30.268 134.022 30.532C133.566 30.796 133.074 31 132.546 31.144C132.042 31.312 131.502 31.396 130.926 31.396C130.062 31.396 129.306 31.264 128.658 31C128.01 30.736 127.47 30.388 127.038 29.956C126.606 29.524 126.27 29.02 126.03 28.444C125.814 27.868 125.706 27.268 125.706 26.644C125.706 25.708 125.91 24.892 126.318 24.196C126.726 23.5 127.266 22.936 127.938 22.504C128.562 22.096 129.294 21.784 130.134 21.568C130.974 21.328 131.79 21.148 132.582 21.028C133.374 20.908 134.094 20.836 134.742 20.812C135.39 20.764 135.822 20.74 136.038 20.74L136.542 20.74C136.518 19.996 136.47 19.42 136.398 19.012C136.326 18.58 136.23 18.22 136.11 17.932C135.894 17.452 135.534 17.116 135.03 16.924C134.55 16.708 133.974 16.6 133.302 16.6C132.894 16.6 132.45 16.636 131.97 16.708C131.514 16.756 131.082 16.864 130.674 17.032C130.266 17.2 129.906 17.44 129.594 17.752C129.306 18.04 129.138 18.424 129.09 18.904L128.946 19.012L127.794 19.012L127.47 15.628L127.578 15.412C127.722 15.268 127.998 15.112 128.406 14.944C128.814 14.776 129.306 14.62 129.882 14.476C130.458 14.308 131.082 14.176 131.754 14.08C132.45 13.96 133.146 13.9 133.842 13.9C134.778 13.9 135.654 14.02 136.47 14.26C137.286 14.476 137.982 14.812 138.558 15.268C139.158 15.724 139.626 16.3 139.962 16.996C140.298 17.668 140.466 18.46 140.466 19.372C140.466 20.356 140.454 21.196 140.43 21.892C140.43 22.588 140.418 23.236 140.394 23.836C140.37 24.436 140.346 25.024 140.322 25.6C140.322 26.152 140.322 26.776 140.322 27.472C140.37 28.024 140.43 28.42 140.502 28.66C140.574 28.9 140.694 29.092 140.862 29.236C141.054 29.428 141.342 29.548 141.726 29.596C142.134 29.62 142.506 29.632 142.842 29.632L142.95 29.776L143.022 31L142.986 31.144C142.578 31.096 142.11 31.06 141.582 31.036C141.054 31.012 140.562 31 140.106 31C139.434 31 138.762 31 138.09 31C137.418 31.024 136.782 31.06 136.182 31.108L135.966 30.748ZM135.966 26.86C136.038 26.74 136.11 26.596 136.182 26.428C136.278 26.26 136.338 26.056 136.362 25.816L136.542 22.756L136.218 22.756C135.474 22.756 134.742 22.804 134.022 22.9C133.302 22.996 132.654 23.176 132.078 23.44C131.502 23.704 131.034 24.076 130.674 24.556C130.314 25.036 130.134 25.66 130.134 26.428C130.134 27.076 130.29 27.592 130.602 27.976C130.938 28.36 131.382 28.552 131.934 28.552C132.342 28.552 132.75 28.504 133.158 28.408C133.59 28.288 133.986 28.144 134.346 27.976C134.706 27.808 135.03 27.628 135.318 27.436C135.606 27.22 135.822 27.028 135.966 26.86ZM150.64 18.256C150.88 17.8 151.144 17.32 151.432 16.816C151.744 16.312 152.092 15.844 152.476 15.412C152.86 14.98 153.292 14.62 153.772 14.332C154.276 14.044 154.84 13.9 155.464 13.9C155.656 13.9 155.884 13.924 156.148 13.972C156.436 13.996 156.712 14.044 156.976 14.116C157.264 14.188 157.54 14.272 157.804 14.368C158.068 14.464 158.272 14.572 158.416 14.692L158.668 14.908L158.236 18.796L156.688 18.796C156.616 18.508 156.424 18.22 156.112 17.932C155.824 17.62 155.368 17.464 154.744 17.464C154.192 17.464 153.688 17.608 153.232 17.896C152.776 18.16 152.38 18.496 152.044 18.904C151.708 19.312 151.444 19.756 151.252 20.236C151.06 20.692 150.964 21.112 150.964 21.496L150.964 23.98C150.964 24.892 150.964 25.576 150.964 26.032C150.988 26.488 151.012 26.884 151.036 27.22C151.084 27.748 151.144 28.18 151.216 28.516C151.312 28.828 151.456 29.068 151.648 29.236C151.744 29.332 151.888 29.416 152.08 29.488C152.296 29.536 152.512 29.572 152.728 29.596C152.944 29.62 153.148 29.632 153.34 29.632C153.556 29.632 153.724 29.632 153.844 29.632L154.024 29.812L154.096 31L154.024 31.144C153.88 31.144 153.64 31.132 153.304 31.108C152.968 31.084 152.608 31.06 152.224 31.036C151.84 31.036 151.48 31.024 151.144 31C150.808 31 150.568 31 150.424 31L148.12 31C147.952 31 147.688 31 147.328 31C146.992 31.024 146.632 31.036 146.248 31.036C145.864 31.06 145.492 31.084 145.132 31.108C144.796 31.132 144.544 31.144 144.376 31.144L144.34 31L144.412 29.776L144.52 29.632C144.928 29.632 145.312 29.62 145.672 29.596C146.032 29.548 146.308 29.428 146.5 29.236C146.692 29.068 146.824 28.852 146.896 28.588C146.992 28.324 147.064 27.868 147.112 27.22C147.136 26.932 147.148 26.548 147.148 26.068C147.148 25.588 147.148 24.916 147.148 24.052L147.148 21.424C147.148 20.92 147.148 20.5 147.148 20.164C147.148 19.804 147.136 19.492 147.112 19.228C147.112 18.964 147.1 18.724 147.076 18.508C147.076 18.292 147.064 18.064 147.04 17.824C146.992 17.584 146.92 17.356 146.824 17.14C146.728 16.924 146.644 16.78 146.572 16.708C146.332 16.396 146.032 16.216 145.672 16.168C145.312 16.12 144.94 16.096 144.556 16.096L144.412 15.952L144.412 14.728L144.556 14.62L145.204 14.62C145.732 14.62 146.416 14.62 147.256 14.62C148.096 14.596 148.828 14.548 149.452 14.476L150.712 14.296L150.928 14.98C150.784 15.436 150.676 15.952 150.604 16.528C150.556 17.104 150.532 17.668 150.532 18.22L150.64 18.256ZM173.915 30.388C173.915 30.22 173.951 29.908 174.023 29.452C174.119 28.972 174.191 28.552 174.239 28.192L174.203 28.048C173.579 29.152 172.715 29.992 171.611 30.568C170.507 31.12 169.355 31.396 168.155 31.396C166.835 31.396 165.683 31.156 164.699 30.676C163.739 30.196 162.935 29.56 162.287 28.768C161.639 27.976 161.159 27.064 160.847 26.032C160.535 25 160.379 23.932 160.379 22.828C160.379 21.22 160.631 19.852 161.135 18.724C161.663 17.572 162.323 16.648 163.115 15.952C163.907 15.232 164.771 14.716 165.707 14.404C166.667 14.068 167.591 13.9 168.479 13.9C169.559 13.9 170.627 14.152 171.683 14.656C172.739 15.16 173.603 15.988 174.275 17.14L174.347 16.996C174.299 16.3 174.275 15.592 174.275 14.872C174.275 14.128 174.275 13.408 174.275 12.712C174.275 11.968 174.275 11.356 174.275 10.876C174.275 10.372 174.263 9.952 174.239 9.616C174.239 9.28 174.227 8.98 174.203 8.716C174.203 8.452 174.191 8.176 174.167 7.888C174.143 7.648 174.059 7.42 173.915 7.204C173.771 6.988 173.663 6.844 173.591 6.772C173.255 6.508 172.919 6.34 172.583 6.268C172.271 6.196 171.899 6.16 171.467 6.16L171.323 6.016L171.323 4.828L171.467 4.684L173.519 4.684C174.071 4.684 174.647 4.684 175.247 4.684C175.871 4.66 176.423 4.612 176.903 4.54L178.163 4.36L178.379 5.044C178.331 5.14 178.283 5.32 178.235 5.584C178.211 5.824 178.187 6.088 178.163 6.376C178.163 6.664 178.151 6.94 178.127 7.204C178.127 7.468 178.127 7.672 178.127 7.816C178.127 8.176 178.115 8.524 178.091 8.86C178.091 9.172 178.091 9.544 178.091 9.976C178.091 10.384 178.079 10.9 178.055 11.524C178.055 12.124 178.055 12.904 178.055 13.864L178.055 21.712C178.055 22.72 178.055 23.536 178.055 24.16C178.079 24.76 178.091 25.264 178.091 25.672C178.115 26.08 178.127 26.44 178.127 26.752C178.151 27.04 178.175 27.4 178.199 27.832C178.247 28.264 178.307 28.576 178.379 28.768C178.475 28.96 178.607 29.116 178.775 29.236C178.967 29.428 179.231 29.548 179.567 29.596C179.903 29.62 180.215 29.632 180.503 29.632L180.647 29.776L180.719 31L180.647 31.144C180.239 31.096 179.795 31.06 179.315 31.036C178.835 31.012 178.379 31 177.947 31C177.299 31 176.651 31 176.003 31C175.355 31.024 174.743 31.06 174.167 31.108L173.915 30.388ZM164.555 22.792C164.555 23.512 164.639 24.22 164.807 24.916C164.999 25.588 165.275 26.2 165.635 26.752C165.995 27.28 166.451 27.712 167.003 28.048C167.579 28.36 168.251 28.516 169.019 28.516C169.835 28.516 170.555 28.384 171.179 28.12C171.827 27.832 172.367 27.496 172.799 27.112C173.255 26.704 173.603 26.284 173.843 25.852C174.107 25.42 174.251 25.048 174.275 24.736L174.275 20.74C174.227 20.428 174.083 20.056 173.843 19.624C173.627 19.168 173.303 18.736 172.871 18.328C172.463 17.92 171.947 17.572 171.323 17.284C170.699 16.972 169.955 16.816 169.091 16.816C168.299 16.816 167.615 16.996 167.039 17.356C166.463 17.692 165.983 18.136 165.599 18.688C165.239 19.24 164.975 19.876 164.807 20.596C164.639 21.316 164.555 22.048 164.555 22.792Z" fill="#444CF7"/>
<path d="M74.0143 50.964C74.0143 51.172 74.0703 51.348 74.1823 51.492C74.2943 51.636 74.4463 51.764 74.6383 51.876C74.8303 51.98 75.0543 52.08 75.3103 52.176C75.5663 52.272 75.8383 52.372 76.1263 52.476C76.4143 52.588 76.6903 52.708 76.9543 52.836C77.2183 52.956 77.4503 53.108 77.6503 53.292C77.8583 53.468 78.0223 53.68 78.1423 53.928C78.2703 54.168 78.3343 54.46 78.3343 54.804C78.3343 55.156 78.2663 55.476 78.1303 55.764C77.9943 56.044 77.7983 56.288 77.5423 56.496C77.2943 56.696 76.9863 56.852 76.6183 56.964C76.2583 57.076 75.8543 57.132 75.4063 57.132C74.9263 57.132 74.4463 57.072 73.9663 56.952C73.4863 56.832 73.0583 56.668 72.6823 56.46L72.6343 56.304L72.9103 54.696L73.4503 54.696L73.5103 54.768C73.5583 55.32 73.7423 55.712 74.0623 55.944C74.3903 56.176 74.8343 56.292 75.3943 56.292C75.9463 56.292 76.3463 56.196 76.5943 56.004C76.8423 55.804 76.9663 55.512 76.9663 55.128C76.9663 54.88 76.9143 54.676 76.8103 54.516C76.7063 54.356 76.5583 54.22 76.3663 54.108C76.1823 53.996 75.9583 53.896 75.6943 53.808C75.4303 53.72 75.1383 53.616 74.8183 53.496C74.5303 53.392 74.2623 53.28 74.0143 53.16C73.7663 53.032 73.5503 52.884 73.3663 52.716C73.1903 52.54 73.0503 52.332 72.9463 52.092C72.8423 51.852 72.7903 51.564 72.7903 51.228C72.7903 50.524 73.0183 49.98 73.4743 49.596C73.9383 49.212 74.6423 49.02 75.5863 49.02C76.0183 49.02 76.4223 49.072 76.7983 49.176C77.1743 49.272 77.4903 49.388 77.7463 49.524L77.7943 49.656L77.6023 51.024L77.0263 51.024L76.9663 50.964C76.9183 50.628 76.7743 50.368 76.5343 50.184C76.2943 50 75.9583 49.908 75.5263 49.908C75.0463 49.908 74.6743 50.004 74.4103 50.196C74.1463 50.388 74.0143 50.644 74.0143 50.964ZM82.5292 56.916C82.5532 56.844 82.5692 56.74 82.5772 56.604C82.5932 56.468 82.6132 56.344 82.6372 56.232L82.6252 56.196C82.5292 56.316 82.4172 56.432 82.2892 56.544C82.1692 56.656 82.0332 56.756 81.8812 56.844C81.7292 56.932 81.5652 57 81.3892 57.048C81.2212 57.104 81.0412 57.132 80.8492 57.132C80.5612 57.132 80.3092 57.088 80.0932 57C79.8772 56.912 79.6972 56.796 79.5532 56.652C79.4092 56.508 79.2972 56.34 79.2172 56.148C79.1452 55.956 79.1092 55.756 79.1092 55.548C79.1092 55.236 79.1772 54.964 79.3132 54.732C79.4492 54.5 79.6292 54.312 79.8532 54.168C80.0612 54.032 80.3052 53.928 80.5852 53.856C80.8652 53.776 81.1372 53.716 81.4012 53.676C81.6652 53.636 81.9052 53.612 82.1212 53.604C82.3372 53.588 82.4812 53.58 82.5532 53.58L82.7212 53.58C82.7132 53.332 82.6972 53.14 82.6732 53.004C82.6492 52.86 82.6172 52.74 82.5772 52.644C82.5052 52.484 82.3852 52.372 82.2172 52.308C82.0572 52.236 81.8652 52.2 81.6412 52.2C81.5052 52.2 81.3572 52.212 81.1972 52.236C81.0452 52.252 80.9012 52.288 80.7652 52.344C80.6292 52.4 80.5092 52.48 80.4052 52.584C80.3092 52.68 80.2532 52.808 80.2372 52.968L80.1892 53.004L79.8052 53.004L79.6972 51.876L79.7332 51.804C79.7812 51.756 79.8732 51.704 80.0092 51.648C80.1452 51.592 80.3092 51.54 80.5012 51.492C80.6932 51.436 80.9012 51.392 81.1252 51.36C81.3572 51.32 81.5892 51.3 81.8212 51.3C82.1332 51.3 82.4252 51.34 82.6972 51.42C82.9692 51.492 83.2012 51.604 83.3932 51.756C83.5932 51.908 83.7492 52.1 83.8612 52.332C83.9732 52.556 84.0292 52.82 84.0292 53.124C84.0292 53.452 84.0252 53.732 84.0172 53.964C84.0172 54.196 84.0132 54.412 84.0052 54.612C83.9972 54.812 83.9892 55.008 83.9812 55.2C83.9812 55.384 83.9812 55.592 83.9812 55.824C83.9972 56.008 84.0172 56.14 84.0412 56.22C84.0652 56.3 84.1052 56.364 84.1612 56.412C84.2252 56.476 84.3212 56.516 84.4492 56.532C84.5852 56.54 84.7092 56.544 84.8212 56.544L84.8572 56.592L84.8812 57L84.8692 57.048C84.7332 57.032 84.5772 57.02 84.4012 57.012C84.2252 57.004 84.0612 57 83.9092 57C83.6852 57 83.4612 57 83.2372 57C83.0132 57.008 82.8012 57.02 82.6012 57.036L82.5292 56.916ZM82.5292 55.62C82.5532 55.58 82.5772 55.532 82.6012 55.476C82.6332 55.42 82.6532 55.352 82.6612 55.272L82.7212 54.252L82.6132 54.252C82.3652 54.252 82.1212 54.268 81.8812 54.3C81.6412 54.332 81.4252 54.392 81.2332 54.48C81.0412 54.568 80.8852 54.692 80.7652 54.852C80.6452 55.012 80.5852 55.22 80.5852 55.476C80.5852 55.692 80.6372 55.864 80.7412 55.992C80.8532 56.12 81.0012 56.184 81.1852 56.184C81.3212 56.184 81.4572 56.168 81.5932 56.136C81.7372 56.096 81.8692 56.048 81.9892 55.992C82.1092 55.936 82.2172 55.876 82.3132 55.812C82.4092 55.74 82.4812 55.676 82.5292 55.62ZM88.4546 58.392C88.3586 58.632 88.2306 58.848 88.0706 59.04C87.9186 59.24 87.7426 59.412 87.5426 59.556C87.3426 59.7 87.1306 59.816 86.9066 59.904C86.6826 60 86.4546 60.064 86.2226 60.096C86.1586 60.112 86.0826 60.12 85.9946 60.12C85.9146 60.12 85.7946 60.12 85.6346 60.12L85.5506 60.096L85.5146 59.484L85.5626 59.424L85.7306 59.424C85.8266 59.424 85.9306 59.412 86.0426 59.388C86.1546 59.372 86.2626 59.336 86.3666 59.28C86.5986 59.168 86.8106 59.008 87.0026 58.8C87.2026 58.592 87.3386 58.392 87.4106 58.2L87.7466 57.3L86.7866 55.104C86.7466 55.016 86.6826 54.86 86.5946 54.636C86.5066 54.412 86.4066 54.168 86.2946 53.904C86.1826 53.632 86.0626 53.364 85.9346 53.1C85.8146 52.836 85.7026 52.616 85.5986 52.44C85.5186 52.312 85.4266 52.212 85.3226 52.14C85.2266 52.068 85.0946 52.024 84.9266 52.008L84.8546 51.948L84.8546 51.54L84.9026 51.492C85.0386 51.508 85.1826 51.524 85.3346 51.54C85.4866 51.556 85.6266 51.564 85.7546 51.564L86.7026 51.564C86.8226 51.564 86.9666 51.556 87.1346 51.54C87.3106 51.524 87.4706 51.508 87.6146 51.492L87.6626 51.54L87.6626 51.924L87.6146 51.972C87.4626 51.988 87.3306 52.036 87.2186 52.116C87.1146 52.188 87.0626 52.296 87.0626 52.44C87.0626 52.536 87.0946 52.696 87.1586 52.92C87.2306 53.136 87.3106 53.368 87.3986 53.616C87.4946 53.864 87.5826 54.096 87.6626 54.312C87.7506 54.52 87.8066 54.66 87.8306 54.732L88.3466 56.184L88.9466 54.732C89.0026 54.604 89.0706 54.444 89.1506 54.252C89.2306 54.052 89.3066 53.844 89.3786 53.628C89.4586 53.412 89.5266 53.2 89.5826 52.992C89.6386 52.784 89.6666 52.6 89.6666 52.44C89.6666 52.264 89.6066 52.148 89.4866 52.092C89.3666 52.028 89.2386 51.988 89.1026 51.972L89.0546 51.924L89.0546 51.54L89.1026 51.492C89.2546 51.524 89.3986 51.544 89.5346 51.552C89.6706 51.56 89.7986 51.564 89.9186 51.564L90.8906 51.564C91.0266 51.564 91.1586 51.556 91.2866 51.54C91.4226 51.524 91.5666 51.508 91.7186 51.492L91.7666 51.54L91.7666 51.948L91.6946 52.008C91.5586 52.024 91.4386 52.064 91.3346 52.128C91.2386 52.192 91.1466 52.296 91.0586 52.44C90.9386 52.632 90.8026 52.88 90.6506 53.184C90.5066 53.48 90.3626 53.78 90.2186 54.084C90.0826 54.388 89.9586 54.664 89.8466 54.912C89.7346 55.16 89.6626 55.332 89.6306 55.428L88.4546 58.392ZM103.313 49.128L103.289 49.584L103.229 49.632C103.109 49.632 102.989 49.64 102.869 49.656C102.757 49.664 102.665 49.696 102.593 49.752C102.529 49.808 102.461 49.88 102.389 49.968C102.325 50.056 102.281 50.212 102.257 50.436C102.249 50.548 102.241 50.652 102.233 50.748C102.233 50.844 102.229 50.956 102.221 51.084C102.221 51.212 102.221 51.368 102.221 51.552C102.221 51.736 102.221 51.972 102.221 52.26L102.221 54.132C102.221 54.58 102.221 54.948 102.221 55.236C102.229 55.524 102.233 55.772 102.233 55.98C102.241 56.18 102.249 56.36 102.257 56.52C102.273 56.68 102.289 56.856 102.305 57.048L102.209 57.108L100.733 57.048L100.613 56.904L96.9053 51.312C96.9213 51.456 96.9293 51.688 96.9293 52.008C96.9373 52.32 96.9413 52.684 96.9413 53.1L96.9413 53.988C96.9413 54.084 96.9413 54.212 96.9413 54.372C96.9413 54.524 96.9413 54.684 96.9413 54.852C96.9493 55.02 96.9533 55.184 96.9533 55.344C96.9613 55.496 96.9693 55.62 96.9773 55.716C96.9933 55.916 97.0373 56.068 97.1093 56.172C97.1813 56.276 97.2573 56.352 97.3373 56.4C97.4013 56.464 97.4853 56.5 97.5893 56.508C97.6933 56.516 97.8253 56.52 97.9853 56.52L98.0453 56.568L98.0813 57.024L98.0573 57.072C97.9933 57.072 97.9013 57.068 97.7813 57.06C97.6693 57.052 97.5493 57.044 97.4213 57.036C97.3013 57.028 97.1813 57.02 97.0613 57.012C96.9493 57.004 96.8653 57 96.8093 57L96.1013 57C96.0453 57 95.9533 57.004 95.8253 57.012C95.6973 57.02 95.5653 57.028 95.4293 57.036C95.2933 57.044 95.1613 57.052 95.0333 57.06C94.9053 57.068 94.8133 57.072 94.7573 57.072L94.7333 57.024L94.7693 56.568L94.8293 56.52C94.9733 56.52 95.0933 56.516 95.1893 56.508C95.2933 56.492 95.3853 56.456 95.4653 56.4C95.5213 56.36 95.5893 56.296 95.6693 56.208C95.7493 56.112 95.8013 55.948 95.8253 55.716C95.8333 55.66 95.8373 55.596 95.8373 55.524C95.8453 55.444 95.8493 55.348 95.8493 55.236C95.8493 55.124 95.8493 54.988 95.8493 54.828C95.8493 54.668 95.8493 54.468 95.8493 54.228L95.8493 52.272C95.8493 51.992 95.8493 51.756 95.8493 51.564C95.8493 51.372 95.8493 51.208 95.8493 51.072C95.8493 50.936 95.8453 50.82 95.8373 50.724C95.8373 50.628 95.8333 50.532 95.8253 50.436C95.8093 50.268 95.7613 50.124 95.6813 50.004C95.6093 49.884 95.5373 49.8 95.4653 49.752C95.3933 49.688 95.3013 49.652 95.1893 49.644C95.0853 49.636 94.9653 49.632 94.8293 49.632L94.7693 49.584L94.7333 49.128L94.7573 49.08C94.8133 49.08 94.8933 49.084 94.9973 49.092C95.1093 49.1 95.2213 49.108 95.3333 49.116C95.4453 49.124 95.5533 49.132 95.6573 49.14C95.7693 49.148 95.8533 49.152 95.9093 49.152L96.9293 49.152C96.9933 49.152 97.0733 49.148 97.1693 49.14C97.2653 49.132 97.3493 49.12 97.4213 49.104L97.4813 49.14C97.5053 49.252 97.5653 49.408 97.6613 49.608C97.7573 49.8 97.8733 50.02 98.0093 50.268C98.1533 50.508 98.3053 50.764 98.4653 51.036C98.6253 51.3 98.7853 51.564 98.9453 51.828C99.2333 52.308 99.4893 52.728 99.7133 53.088C99.9373 53.44 100.137 53.748 100.313 54.012C100.489 54.276 100.641 54.5 100.769 54.684C100.897 54.86 101.005 55.008 101.093 55.128C101.093 54.92 101.093 54.716 101.093 54.516C101.101 54.316 101.105 54.112 101.105 53.904L101.105 52.272C101.105 51.992 101.105 51.756 101.105 51.564C101.105 51.372 101.101 51.208 101.093 51.072C101.093 50.936 101.089 50.82 101.081 50.724C101.081 50.628 101.077 50.532 101.069 50.436C101.053 50.3 101.017 50.176 100.961 50.064C100.913 49.944 100.833 49.84 100.721 49.752C100.649 49.688 100.553 49.652 100.433 49.644C100.321 49.636 100.201 49.632 100.073 49.632L100.025 49.584L99.9893 49.128L100.013 49.08C100.069 49.08 100.149 49.084 100.253 49.092C100.357 49.1 100.461 49.108 100.565 49.116C100.677 49.124 100.785 49.132 100.889 49.14C100.993 49.148 101.073 49.152 101.129 49.152L102.173 49.152C102.229 49.152 102.309 49.152 102.413 49.152C102.517 49.144 102.625 49.136 102.737 49.128C102.849 49.12 102.957 49.112 103.061 49.104C103.165 49.096 103.245 49.088 103.301 49.08L103.313 49.128ZM106.708 51.3C107.18 51.3 107.6 51.384 107.968 51.552C108.336 51.712 108.644 51.932 108.892 52.212C109.148 52.484 109.34 52.8 109.468 53.16C109.604 53.52 109.672 53.892 109.672 54.276C109.672 54.644 109.612 55 109.492 55.344C109.372 55.688 109.188 55.992 108.94 56.256C108.692 56.52 108.384 56.732 108.016 56.892C107.648 57.052 107.22 57.132 106.732 57.132C106.228 57.132 105.788 57.048 105.412 56.88C105.036 56.712 104.724 56.492 104.476 56.22C104.236 55.948 104.056 55.64 103.936 55.296C103.816 54.944 103.756 54.584 103.756 54.216C103.756 53.824 103.824 53.452 103.96 53.1C104.096 52.748 104.288 52.44 104.536 52.176C104.792 51.904 105.1 51.692 105.46 51.54C105.828 51.38 106.244 51.3 106.708 51.3ZM106.72 56.304C106.968 56.304 107.184 56.248 107.368 56.136C107.56 56.016 107.72 55.864 107.848 55.68C107.976 55.488 108.068 55.272 108.124 55.032C108.188 54.784 108.22 54.532 108.22 54.276C108.22 54.028 108.184 53.78 108.112 53.532C108.048 53.276 107.948 53.048 107.812 52.848C107.684 52.648 107.524 52.484 107.332 52.356C107.14 52.228 106.92 52.164 106.672 52.164C106.416 52.164 106.192 52.224 106 52.344C105.816 52.464 105.664 52.62 105.544 52.812C105.424 53.004 105.332 53.22 105.268 53.46C105.212 53.7 105.184 53.944 105.184 54.192C105.184 54.448 105.216 54.7 105.28 54.948C105.352 55.196 105.452 55.424 105.58 55.632C105.716 55.832 105.88 55.996 106.072 56.124C106.264 56.244 106.48 56.304 106.72 56.304ZM116.676 52.2L115.356 52.2C115.356 52.664 115.352 53.096 115.344 53.496C115.344 53.888 115.344 54.232 115.344 54.528C115.344 54.816 115.34 55.052 115.332 55.236C115.332 55.42 115.332 55.532 115.332 55.572C115.332 55.884 115.392 56.092 115.512 56.196C115.632 56.3 115.772 56.352 115.932 56.352C116.052 56.352 116.188 56.34 116.34 56.316C116.492 56.292 116.62 56.26 116.724 56.22L116.796 56.352L116.676 56.748C116.46 56.868 116.236 56.96 116.004 57.024C115.78 57.096 115.572 57.132 115.38 57.132C114.892 57.132 114.544 57.02 114.336 56.796C114.128 56.572 114.024 56.284 114.024 55.932C114.024 55.86 114.028 55.72 114.036 55.512C114.044 55.296 114.052 55.028 114.06 54.708C114.068 54.38 114.076 54.004 114.084 53.58C114.092 53.156 114.096 52.696 114.096 52.2L113.472 52.2L113.424 52.14L113.424 51.612L113.472 51.564L114.096 51.396C114.096 51.14 114.088 50.88 114.072 50.616C114.064 50.344 114.052 50.08 114.036 49.824L114.12 49.752L114.288 49.74C114.344 49.74 114.42 49.736 114.516 49.728C114.62 49.72 114.728 49.712 114.84 49.704C114.952 49.688 115.056 49.672 115.152 49.656C115.256 49.64 115.332 49.624 115.38 49.608L115.488 49.656C115.448 49.856 115.416 50.124 115.392 50.46C115.368 50.788 115.356 51.1 115.356 51.396L116.676 51.324L116.736 51.372L116.736 52.14L116.676 52.2ZM120.395 51.3C120.867 51.3 121.287 51.384 121.655 51.552C122.023 51.712 122.331 51.932 122.579 52.212C122.835 52.484 123.027 52.8 123.155 53.16C123.291 53.52 123.359 53.892 123.359 54.276C123.359 54.644 123.299 55 123.179 55.344C123.059 55.688 122.875 55.992 122.627 56.256C122.379 56.52 122.071 56.732 121.703 56.892C121.335 57.052 120.907 57.132 120.419 57.132C119.915 57.132 119.475 57.048 119.099 56.88C118.723 56.712 118.411 56.492 118.163 56.22C117.923 55.948 117.743 55.64 117.623 55.296C117.503 54.944 117.443 54.584 117.443 54.216C117.443 53.824 117.511 53.452 117.647 53.1C117.783 52.748 117.975 52.44 118.223 52.176C118.479 51.904 118.787 51.692 119.147 51.54C119.515 51.38 119.931 51.3 120.395 51.3ZM120.407 56.304C120.655 56.304 120.871 56.248 121.055 56.136C121.247 56.016 121.407 55.864 121.535 55.68C121.663 55.488 121.755 55.272 121.811 55.032C121.875 54.784 121.907 54.532 121.907 54.276C121.907 54.028 121.871 53.78 121.799 53.532C121.735 53.276 121.635 53.048 121.499 52.848C121.371 52.648 121.211 52.484 121.019 52.356C120.827 52.228 120.607 52.164 120.359 52.164C120.103 52.164 119.879 52.224 119.687 52.344C119.503 52.464 119.351 52.62 119.231 52.812C119.111 53.004 119.019 53.22 118.955 53.46C118.899 53.7 118.871 53.944 118.871 54.192C118.871 54.448 118.903 54.7 118.967 54.948C119.039 55.196 119.139 55.424 119.267 55.632C119.403 55.832 119.567 55.996 119.759 56.124C119.951 56.244 120.167 56.304 120.407 56.304ZM130.568 57.072C130.512 57.072 130.42 57.068 130.292 57.06C130.164 57.052 130.032 57.044 129.896 57.036C129.76 57.028 129.628 57.02 129.5 57.012C129.372 57.004 129.28 57 129.224 57L128.516 57C128.46 57 128.368 57.004 128.24 57.012C128.112 57.02 127.98 57.028 127.844 57.036C127.708 57.044 127.576 57.052 127.448 57.06C127.32 57.068 127.228 57.072 127.172 57.072L127.148 57.024L127.184 56.568L127.244 56.52C127.34 56.52 127.452 56.516 127.58 56.508C127.708 56.492 127.808 56.46 127.88 56.412C127.944 56.364 128.004 56.288 128.06 56.184C128.116 56.08 128.156 55.924 128.18 55.716C128.18 55.66 128.18 55.596 128.18 55.524C128.188 55.444 128.192 55.348 128.192 55.236C128.2 55.124 128.204 54.988 128.204 54.828C128.204 54.668 128.204 54.468 128.204 54.228L128.204 51.588C128.204 51.428 128.204 51.248 128.204 51.048C128.204 50.84 128.196 50.636 128.18 50.436C128.164 50.228 128.124 50.076 128.06 49.98C128.004 49.876 127.944 49.8 127.88 49.752C127.808 49.688 127.732 49.652 127.652 49.644C127.58 49.636 127.444 49.632 127.244 49.632L127.184 49.584L127.148 49.128L127.172 49.08C127.228 49.08 127.3 49.084 127.388 49.092C127.484 49.1 127.58 49.108 127.676 49.116C127.78 49.124 127.884 49.132 127.988 49.14C128.092 49.148 128.188 49.152 128.276 49.152L129.188 49.152C129.276 49.152 129.376 49.152 129.488 49.152C129.6 49.144 129.712 49.14 129.824 49.14C129.944 49.14 130.052 49.14 130.148 49.14C130.244 49.132 130.324 49.128 130.388 49.128C130.924 49.128 131.376 49.184 131.744 49.296C132.12 49.4 132.424 49.548 132.656 49.74C132.888 49.932 133.056 50.164 133.16 50.436C133.272 50.7 133.328 50.992 133.328 51.312C133.328 51.848 133.232 52.288 133.04 52.632C132.848 52.976 132.6 53.248 132.296 53.448C132 53.648 131.664 53.788 131.288 53.868C130.92 53.94 130.56 53.976 130.208 53.976L129.536 53.976C129.536 54.136 129.536 54.304 129.536 54.48C129.536 54.656 129.536 54.828 129.536 54.996C129.544 55.156 129.548 55.3 129.548 55.428C129.556 55.556 129.564 55.652 129.572 55.716C129.588 55.948 129.628 56.112 129.692 56.208C129.756 56.296 129.812 56.36 129.86 56.4C129.932 56.464 130.004 56.5 130.076 56.508C130.156 56.516 130.3 56.52 130.508 56.52L130.556 56.568L130.592 57.024L130.568 57.072ZM130.148 53.088C130.82 53.088 131.3 52.936 131.588 52.632C131.876 52.328 132.02 51.908 132.02 51.372C132.02 50.94 131.852 50.62 131.516 50.412C131.188 50.196 130.736 50.088 130.16 50.088L129.596 50.088C129.572 50.44 129.556 50.704 129.548 50.88C129.54 51.048 129.536 51.2 129.536 51.336L129.536 52.644C129.536 52.748 129.54 52.832 129.548 52.896C129.556 52.952 129.576 52.996 129.608 53.028C129.64 53.052 129.684 53.068 129.74 53.076C129.804 53.084 129.888 53.088 129.992 53.088L130.148 53.088ZM136.825 51.3C137.297 51.3 137.717 51.384 138.085 51.552C138.453 51.712 138.761 51.932 139.009 52.212C139.265 52.484 139.457 52.8 139.585 53.16C139.721 53.52 139.789 53.892 139.789 54.276C139.789 54.644 139.729 55 139.609 55.344C139.489 55.688 139.305 55.992 139.057 56.256C138.809 56.52 138.501 56.732 138.133 56.892C137.765 57.052 137.337 57.132 136.849 57.132C136.345 57.132 135.905 57.048 135.529 56.88C135.153 56.712 134.841 56.492 134.593 56.22C134.353 55.948 134.173 55.64 134.053 55.296C133.933 54.944 133.873 54.584 133.873 54.216C133.873 53.824 133.941 53.452 134.077 53.1C134.213 52.748 134.405 52.44 134.653 52.176C134.909 51.904 135.217 51.692 135.577 51.54C135.945 51.38 136.361 51.3 136.825 51.3ZM136.837 56.304C137.085 56.304 137.301 56.248 137.485 56.136C137.677 56.016 137.837 55.864 137.965 55.68C138.093 55.488 138.185 55.272 138.241 55.032C138.305 54.784 138.337 54.532 138.337 54.276C138.337 54.028 138.301 53.78 138.229 53.532C138.165 53.276 138.065 53.048 137.929 52.848C137.801 52.648 137.641 52.484 137.449 52.356C137.257 52.228 137.037 52.164 136.789 52.164C136.533 52.164 136.309 52.224 136.117 52.344C135.933 52.464 135.781 52.62 135.661 52.812C135.541 53.004 135.449 53.22 135.385 53.46C135.329 53.7 135.301 53.944 135.301 54.192C135.301 54.448 135.333 54.7 135.397 54.948C135.469 55.196 135.569 55.424 135.697 55.632C135.833 55.832 135.997 55.996 136.189 56.124C136.381 56.244 136.597 56.304 136.837 56.304ZM143.551 57.048C143.495 57.048 143.411 57.044 143.299 57.036C143.187 57.028 143.067 57.02 142.939 57.012C142.811 57.012 142.691 57.008 142.579 57C142.467 57 142.383 57 142.327 57L141.679 57C141.623 57 141.535 57 141.415 57C141.303 57.008 141.183 57.012 141.055 57.012C140.935 57.02 140.815 57.028 140.695 57.036C140.583 57.044 140.499 57.048 140.443 57.048L140.431 57L140.455 56.592L140.491 56.544C140.611 56.544 140.735 56.54 140.863 56.532C140.991 56.516 141.087 56.476 141.151 56.412C141.207 56.356 141.247 56.284 141.271 56.196C141.295 56.108 141.315 55.984 141.331 55.824C141.339 55.768 141.343 55.712 141.343 55.656C141.351 55.6 141.355 55.54 141.355 55.476C141.363 55.412 141.367 55.336 141.367 55.248C141.367 55.16 141.367 55.052 141.367 54.924L141.367 50.256C141.367 50.104 141.367 49.984 141.367 49.896C141.367 49.8 141.363 49.72 141.355 49.656C141.355 49.592 141.351 49.536 141.343 49.488C141.343 49.432 141.339 49.368 141.331 49.296C141.315 49.216 141.291 49.14 141.259 49.068C141.227 48.996 141.199 48.948 141.175 48.924C141.095 48.82 140.995 48.76 140.875 48.744C140.755 48.728 140.631 48.72 140.503 48.72L140.455 48.672L140.455 48.264L140.503 48.228L141.115 48.228C141.299 48.228 141.495 48.228 141.703 48.228C141.911 48.22 142.095 48.204 142.255 48.18L142.675 48.12L142.747 48.348C142.731 48.38 142.715 48.432 142.699 48.504C142.691 48.568 142.683 48.64 142.675 48.72C142.675 48.792 142.671 48.868 142.663 48.948C142.663 49.02 142.663 49.08 142.663 49.128C142.663 49.192 142.659 49.252 142.651 49.308C142.651 49.356 142.651 49.416 142.651 49.488C142.651 49.552 142.647 49.636 142.639 49.74C142.639 49.844 142.639 49.972 142.639 50.124L142.639 54.78C142.639 54.94 142.639 55.072 142.639 55.176C142.647 55.272 142.651 55.356 142.651 55.428C142.659 55.5 142.663 55.568 142.663 55.632C142.671 55.688 142.679 55.752 142.687 55.824C142.703 55.992 142.719 56.12 142.735 56.208C142.759 56.288 142.803 56.356 142.867 56.412C142.931 56.476 143.019 56.516 143.131 56.532C143.251 56.54 143.371 56.544 143.491 56.544L143.551 56.604L143.575 57L143.551 57.048ZM147.125 57.048C147.069 57.048 146.985 57.044 146.873 57.036C146.761 57.028 146.641 57.02 146.513 57.012C146.385 57.012 146.265 57.008 146.153 57C146.041 57 145.957 57 145.901 57L145.253 57C145.197 57 145.109 57 144.989 57C144.877 57.008 144.757 57.012 144.629 57.012C144.509 57.02 144.389 57.028 144.269 57.036C144.157 57.044 144.073 57.048 144.017 57.048L144.005 57L144.029 56.592L144.065 56.544C144.185 56.544 144.309 56.54 144.437 56.532C144.565 56.516 144.661 56.476 144.725 56.412C144.781 56.356 144.821 56.284 144.845 56.196C144.869 56.108 144.889 55.984 144.905 55.824C144.913 55.768 144.917 55.712 144.917 55.656C144.925 55.6 144.929 55.54 144.929 55.476C144.937 55.412 144.941 55.336 144.941 55.248C144.941 55.16 144.941 55.052 144.941 54.924L144.941 50.256C144.941 50.104 144.941 49.984 144.941 49.896C144.941 49.8 144.937 49.72 144.929 49.656C144.929 49.592 144.925 49.536 144.917 49.488C144.917 49.432 144.913 49.368 144.905 49.296C144.889 49.216 144.865 49.14 144.833 49.068C144.801 48.996 144.773 48.948 144.749 48.924C144.669 48.82 144.569 48.76 144.449 48.744C144.329 48.728 144.205 48.72 144.077 48.72L144.029 48.672L144.029 48.264L144.077 48.228L144.689 48.228C144.873 48.228 145.069 48.228 145.277 48.228C145.485 48.22 145.669 48.204 145.829 48.18L146.249 48.12L146.321 48.348C146.305 48.38 146.289 48.432 146.273 48.504C146.265 48.568 146.257 48.64 146.249 48.72C146.249 48.792 146.245 48.868 146.237 48.948C146.237 49.02 146.237 49.08 146.237 49.128C146.237 49.192 146.233 49.252 146.225 49.308C146.225 49.356 146.225 49.416 146.225 49.488C146.225 49.552 146.221 49.636 146.213 49.74C146.213 49.844 146.213 49.972 146.213 50.124L146.213 54.78C146.213 54.94 146.213 55.072 146.213 55.176C146.221 55.272 146.225 55.356 146.225 55.428C146.233 55.5 146.237 55.568 146.237 55.632C146.245 55.688 146.253 55.752 146.261 55.824C146.277 55.992 146.293 56.12 146.309 56.208C146.333 56.288 146.377 56.356 146.441 56.412C146.505 56.476 146.593 56.516 146.705 56.532C146.825 56.54 146.945 56.544 147.065 56.544L147.125 56.604L147.149 57L147.125 57.048ZM152.439 55.968C152.223 56.312 151.955 56.592 151.635 56.808C151.315 57.024 150.911 57.132 150.423 57.132C150.199 57.132 149.979 57.104 149.763 57.048C149.555 56.992 149.363 56.904 149.187 56.784C149.019 56.664 148.871 56.508 148.743 56.316C148.615 56.116 148.523 55.876 148.467 55.596C148.451 55.524 148.435 55.444 148.419 55.356C148.411 55.268 148.403 55.156 148.395 55.02C148.395 54.876 148.391 54.704 148.383 54.504C148.383 54.296 148.383 54.04 148.383 53.736L148.383 52.656C148.383 52.568 148.363 52.48 148.323 52.392C148.283 52.304 148.251 52.248 148.227 52.224C148.147 52.128 148.047 52.072 147.927 52.056C147.807 52.04 147.683 52.032 147.555 52.032L147.519 51.984L147.519 51.576L147.555 51.54L148.143 51.54C148.327 51.54 148.523 51.54 148.731 51.54C148.939 51.532 149.123 51.516 149.283 51.492L149.703 51.432L149.775 51.66C149.759 51.692 149.747 51.752 149.739 51.84C149.731 51.92 149.723 52.008 149.715 52.104C149.707 52.2 149.703 52.292 149.703 52.38C149.703 52.468 149.703 52.536 149.703 52.584C149.703 52.688 149.699 52.816 149.691 52.968C149.691 53.112 149.687 53.264 149.679 53.424C149.679 53.576 149.675 53.724 149.667 53.868C149.667 54.012 149.667 54.132 149.667 54.228C149.667 54.436 149.675 54.648 149.691 54.864C149.707 55.072 149.739 55.264 149.787 55.44C149.867 55.72 149.987 55.928 150.147 56.064C150.315 56.192 150.547 56.256 150.843 56.256C151.083 56.256 151.295 56.216 151.479 56.136C151.671 56.056 151.835 55.96 151.971 55.848C152.107 55.736 152.219 55.616 152.307 55.488C152.395 55.352 152.451 55.232 152.475 55.128L152.475 53.928C152.475 53.56 152.467 53.276 152.451 53.076C152.443 52.876 152.431 52.72 152.415 52.608C152.399 52.504 152.375 52.42 152.343 52.356C152.319 52.292 152.295 52.248 152.271 52.224C152.183 52.128 152.071 52.072 151.935 52.056C151.799 52.04 151.691 52.032 151.611 52.032L151.563 51.984L151.563 51.576L151.611 51.54L151.827 51.54C151.907 51.54 152.011 51.54 152.139 51.54C152.275 51.54 152.415 51.54 152.559 51.54C152.703 51.532 152.843 51.528 152.979 51.528C153.115 51.52 153.231 51.508 153.327 51.492L153.747 51.432L153.819 51.66C153.779 51.892 153.751 52.196 153.735 52.572C153.727 52.772 153.719 52.936 153.711 53.064C153.711 53.184 153.711 53.284 153.711 53.364C153.711 53.444 153.711 53.508 153.711 53.556C153.711 53.596 153.711 53.636 153.711 53.676L153.711 54.66C153.711 55.1 153.723 55.488 153.747 55.824C153.763 55.976 153.783 56.1 153.807 56.196C153.831 56.284 153.875 56.356 153.939 56.412C154.011 56.476 154.095 56.516 154.191 56.532C154.287 56.54 154.403 56.544 154.539 56.544L154.587 56.592L154.611 57L154.587 57.036C154.435 57.02 154.287 57.008 154.143 57C153.999 57 153.831 57 153.639 57C153.447 57 153.243 57 153.027 57C152.811 57.008 152.603 57.02 152.403 57.036L152.331 56.796C152.355 56.708 152.379 56.592 152.403 56.448C152.435 56.296 152.459 56.144 152.475 55.992L152.439 55.968ZM158.559 52.2L157.239 52.2C157.239 52.664 157.235 53.096 157.227 53.496C157.227 53.888 157.227 54.232 157.227 54.528C157.227 54.816 157.223 55.052 157.215 55.236C157.215 55.42 157.215 55.532 157.215 55.572C157.215 55.884 157.275 56.092 157.395 56.196C157.515 56.3 157.655 56.352 157.815 56.352C157.935 56.352 158.071 56.34 158.223 56.316C158.375 56.292 158.503 56.26 158.607 56.22L158.679 56.352L158.559 56.748C158.343 56.868 158.119 56.96 157.887 57.024C157.663 57.096 157.455 57.132 157.263 57.132C156.775 57.132 156.427 57.02 156.219 56.796C156.011 56.572 155.907 56.284 155.907 55.932C155.907 55.86 155.911 55.72 155.919 55.512C155.927 55.296 155.935 55.028 155.943 54.708C155.951 54.38 155.959 54.004 155.967 53.58C155.975 53.156 155.979 52.696 155.979 52.2L155.355 52.2L155.307 52.14L155.307 51.612L155.355 51.564L155.979 51.396C155.979 51.14 155.971 50.88 155.955 50.616C155.947 50.344 155.935 50.08 155.919 49.824L156.003 49.752L156.171 49.74C156.227 49.74 156.303 49.736 156.399 49.728C156.503 49.72 156.611 49.712 156.723 49.704C156.835 49.688 156.939 49.672 157.035 49.656C157.139 49.64 157.215 49.624 157.263 49.608L157.371 49.656C157.331 49.856 157.299 50.124 157.275 50.46C157.251 50.788 157.239 51.1 157.239 51.396L158.559 51.324L158.619 51.372L158.619 52.14L158.559 52.2ZM162.362 57.048C162.306 57.048 162.222 57.044 162.11 57.036C161.998 57.028 161.878 57.02 161.75 57.012C161.622 57.012 161.502 57.008 161.39 57C161.278 57 161.194 57 161.138 57L160.49 57C160.434 57 160.346 57 160.226 57C160.114 57.008 159.994 57.012 159.866 57.012C159.746 57.02 159.626 57.028 159.506 57.036C159.394 57.044 159.31 57.048 159.254 57.048L159.242 57L159.266 56.592L159.302 56.544C159.422 56.544 159.546 56.54 159.674 56.532C159.802 56.516 159.898 56.476 159.962 56.412C160.018 56.356 160.058 56.284 160.082 56.196C160.106 56.108 160.126 55.984 160.142 55.824C160.15 55.768 160.154 55.712 160.154 55.656C160.162 55.6 160.166 55.54 160.166 55.476C160.174 55.412 160.178 55.336 160.178 55.248C160.178 55.16 160.178 55.052 160.178 54.924L160.178 53.568C160.178 53.416 160.178 53.296 160.178 53.208C160.178 53.112 160.174 53.032 160.166 52.968C160.166 52.904 160.162 52.848 160.154 52.8C160.154 52.744 160.15 52.68 160.142 52.608C160.126 52.528 160.102 52.452 160.07 52.38C160.038 52.308 160.01 52.26 159.986 52.236C159.906 52.132 159.806 52.072 159.686 52.056C159.566 52.04 159.442 52.032 159.314 52.032L159.266 51.984L159.266 51.576L159.314 51.54L159.926 51.54C160.11 51.54 160.306 51.54 160.514 51.54C160.722 51.532 160.906 51.516 161.066 51.492L161.486 51.432L161.558 51.66C161.542 51.692 161.526 51.744 161.51 51.816C161.502 51.88 161.494 51.952 161.486 52.032C161.486 52.104 161.482 52.18 161.474 52.26C161.474 52.332 161.474 52.392 161.474 52.44C161.474 52.504 161.47 52.564 161.462 52.62C161.462 52.668 161.462 52.728 161.462 52.8C161.462 52.864 161.458 52.948 161.45 53.052C161.45 53.156 161.45 53.284 161.45 53.436L161.45 54.78C161.45 54.94 161.45 55.072 161.45 55.176C161.458 55.272 161.462 55.356 161.462 55.428C161.47 55.5 161.474 55.568 161.474 55.632C161.482 55.688 161.49 55.752 161.498 55.824C161.514 55.992 161.53 56.12 161.546 56.208C161.57 56.288 161.614 56.356 161.678 56.412C161.742 56.476 161.83 56.516 161.942 56.532C162.062 56.54 162.182 56.544 162.302 56.544L162.362 56.604L162.386 57L162.362 57.048ZM159.926 49.644C159.926 49.548 159.946 49.452 159.986 49.356C160.026 49.26 160.082 49.176 160.154 49.104C160.226 49.024 160.306 48.964 160.394 48.924C160.49 48.876 160.59 48.852 160.694 48.852C160.894 48.852 161.074 48.936 161.234 49.104C161.402 49.264 161.486 49.444 161.486 49.644C161.486 49.748 161.462 49.848 161.414 49.944C161.374 50.032 161.314 50.112 161.234 50.184C161.162 50.256 161.078 50.312 160.982 50.352C160.886 50.392 160.79 50.412 160.694 50.412C160.486 50.412 160.306 50.336 160.154 50.184C160.002 50.032 159.926 49.852 159.926 49.644ZM165.946 51.3C166.418 51.3 166.838 51.384 167.206 51.552C167.574 51.712 167.882 51.932 168.13 52.212C168.386 52.484 168.578 52.8 168.706 53.16C168.842 53.52 168.91 53.892 168.91 54.276C168.91 54.644 168.85 55 168.73 55.344C168.61 55.688 168.426 55.992 168.178 56.256C167.93 56.52 167.622 56.732 167.254 56.892C166.886 57.052 166.458 57.132 165.97 57.132C165.466 57.132 165.026 57.048 164.65 56.88C164.274 56.712 163.962 56.492 163.714 56.22C163.474 55.948 163.294 55.64 163.174 55.296C163.054 54.944 162.994 54.584 162.994 54.216C162.994 53.824 163.062 53.452 163.198 53.1C163.334 52.748 163.526 52.44 163.774 52.176C164.03 51.904 164.338 51.692 164.698 51.54C165.066 51.38 165.482 51.3 165.946 51.3ZM165.958 56.304C166.206 56.304 166.422 56.248 166.606 56.136C166.798 56.016 166.958 55.864 167.086 55.68C167.214 55.488 167.306 55.272 167.362 55.032C167.426 54.784 167.458 54.532 167.458 54.276C167.458 54.028 167.422 53.78 167.35 53.532C167.286 53.276 167.186 53.048 167.05 52.848C166.922 52.648 166.762 52.484 166.57 52.356C166.378 52.228 166.158 52.164 165.91 52.164C165.654 52.164 165.43 52.224 165.238 52.344C165.054 52.464 164.902 52.62 164.782 52.812C164.662 53.004 164.57 53.22 164.506 53.46C164.45 53.7 164.422 53.944 164.422 54.192C164.422 54.448 164.454 54.7 164.518 54.948C164.59 55.196 164.69 55.424 164.818 55.632C164.954 55.832 165.118 55.996 165.31 56.124C165.502 56.244 165.718 56.304 165.958 56.304ZM171.904 52.524C172.088 52.172 172.34 51.88 172.66 51.648C172.98 51.416 173.356 51.3 173.788 51.3C174.036 51.3 174.28 51.332 174.52 51.396C174.76 51.46 174.976 51.56 175.168 51.696C175.368 51.832 175.532 52.008 175.66 52.224C175.796 52.432 175.884 52.68 175.924 52.968C175.948 53.176 175.96 53.396 175.96 53.628C175.968 53.86 175.972 54.092 175.972 54.324C175.98 54.596 175.984 54.848 175.984 55.08C175.984 55.304 175.984 55.552 175.984 55.824C175.984 56.008 176.004 56.148 176.044 56.244C176.092 56.332 176.148 56.392 176.212 56.424C176.3 56.472 176.392 56.504 176.488 56.52C176.592 56.536 176.708 56.544 176.836 56.544L176.872 56.592L176.896 57L176.872 57.048C176.704 57.032 176.516 57.02 176.308 57.012C176.108 57.004 175.912 57 175.72 57C175.528 57 175.336 57 175.144 57C174.952 57.008 174.772 57.02 174.604 57.036L174.52 56.796C174.544 56.692 174.564 56.536 174.58 56.328C174.604 56.12 174.62 55.952 174.628 55.824C174.644 55.52 174.656 55.236 174.664 54.972C174.672 54.708 174.676 54.472 174.676 54.264C174.676 54.08 174.672 53.88 174.664 53.664C174.656 53.448 174.628 53.26 174.58 53.1C174.516 52.844 174.384 52.656 174.184 52.536C173.992 52.408 173.768 52.344 173.512 52.344C173.272 52.344 173.052 52.388 172.852 52.476C172.652 52.564 172.48 52.672 172.336 52.8C172.2 52.92 172.092 53.048 172.012 53.184C171.932 53.32 171.892 53.44 171.892 53.544L171.892 54.78C171.892 54.94 171.892 55.072 171.892 55.176C171.892 55.272 171.892 55.356 171.892 55.428C171.9 55.5 171.904 55.568 171.904 55.632C171.912 55.688 171.92 55.752 171.928 55.824C171.944 55.992 171.976 56.12 172.024 56.208C172.08 56.288 172.14 56.356 172.204 56.412C172.268 56.476 172.344 56.516 172.432 56.532C172.52 56.54 172.624 56.544 172.744 56.544L172.804 56.604L172.828 57L172.804 57.048C172.748 57.048 172.664 57.044 172.552 57.036C172.44 57.028 172.32 57.02 172.192 57.012C172.064 57.012 171.944 57.008 171.832 57C171.72 57 171.636 57 171.58 57L170.92 57C170.864 57 170.776 57 170.656 57C170.544 57.008 170.424 57.012 170.296 57.012C170.176 57.02 170.056 57.028 169.936 57.036C169.824 57.044 169.74 57.048 169.684 57.048L169.672 57L169.696 56.592L169.732 56.544C169.86 56.544 169.972 56.54 170.068 56.532C170.172 56.516 170.256 56.476 170.32 56.412C170.376 56.356 170.428 56.284 170.476 56.196C170.524 56.108 170.556 55.984 170.572 55.824C170.58 55.768 170.584 55.712 170.584 55.656C170.592 55.6 170.596 55.54 170.596 55.476C170.604 55.412 170.608 55.336 170.608 55.248C170.608 55.16 170.608 55.052 170.608 54.924L170.608 53.688C170.608 53.536 170.608 53.408 170.608 53.304C170.608 53.2 170.604 53.108 170.596 53.028C170.596 52.948 170.592 52.876 170.584 52.812C170.584 52.748 170.58 52.68 170.572 52.608C170.556 52.528 170.532 52.452 170.5 52.38C170.468 52.308 170.44 52.26 170.416 52.236C170.336 52.132 170.236 52.072 170.116 52.056C169.996 52.04 169.872 52.032 169.744 52.032L169.696 51.984L169.696 51.576L169.744 51.54L170.356 51.54C170.54 51.54 170.736 51.54 170.944 51.54C171.16 51.532 171.348 51.516 171.508 51.492L171.928 51.432L172 51.66C171.936 51.748 171.896 51.872 171.88 52.032C171.872 52.184 171.868 52.34 171.868 52.5L171.904 52.524Z" fill="#444CF7"/>
</svg>
