<svg width="16" height="16" viewBox="0 0 16 16" fill="none" xmlns="http://www.w3.org/2000/svg">
<path d="M11.5 11.5C11.5 12.0304 11.2893 12.5391 10.9142 12.9142C10.5391 13.2893 10.0304 13.5 9.5 13.5C8.64375 13.5 7.81563 12.9419 7.53125 12.1737C7.48798 12.0501 7.49498 11.9144 7.55074 11.7958C7.6065 11.6773 7.70656 11.5853 7.82941 11.5398C7.95226 11.4942 8.08808 11.4987 8.20764 11.5523C8.32721 11.6059 8.42096 11.7043 8.46875 11.8263C8.60875 12.2044 9.0625 12.5 9.5 12.5C9.76522 12.5 10.0196 12.3946 10.2071 12.2071C10.3946 12.0196 10.5 11.7652 10.5 11.5C10.5 11.2348 10.3946 10.9804 10.2071 10.7929C10.0196 10.6054 9.76522 10.5 9.5 10.5H2.5C2.36739 10.5 2.24021 10.4473 2.14645 10.3536C2.05268 10.2598 2 10.1326 2 10C2 9.86739 2.05268 9.74021 2.14645 9.64645C2.24021 9.55268 2.36739 9.5 2.5 9.5H9.5C10.0304 9.5 10.5391 9.71071 10.9142 10.0858C11.2893 10.4609 11.5 10.9696 11.5 11.5ZM7.5 6.5C8.03043 6.5 8.53914 6.28929 8.91421 5.91421C9.28929 5.53914 9.5 5.03043 9.5 4.5C9.5 3.96957 9.28929 3.46086 8.91421 3.08579C8.53914 2.71071 8.03043 2.5 7.5 2.5C6.64375 2.5 5.81563 3.05813 5.53125 3.82625C5.48798 3.94992 5.49498 4.08562 5.55074 4.20418C5.6065 4.32274 5.70656 4.41468 5.82941 4.46022C5.95226 4.50575 6.08808 4.50125 6.20764 4.44768C6.32721 4.3941 6.42096 4.29574 6.46875 4.17375C6.60875 3.79562 7.0625 3.5 7.5 3.5C7.76522 3.5 8.01957 3.60536 8.20711 3.79289C8.39464 3.98043 8.5 4.23478 8.5 4.5C8.5 4.76522 8.39464 5.01957 8.20711 5.20711C8.01957 5.39464 7.76522 5.5 7.5 5.5H1.5C1.36739 5.5 1.24021 5.55268 1.14645 5.64645C1.05268 5.74021 1 5.86739 1 6C1 6.13261 1.05268 6.25979 1.14645 6.35355C1.24021 6.44732 1.36739 6.5 1.5 6.5H7.5ZM13 4.5C12.1438 4.5 11.3156 5.05813 11.0312 5.82625C10.988 5.94992 10.995 6.08562 11.0507 6.20418C11.1065 6.32274 11.2066 6.41468 11.3294 6.46022C11.4523 6.50575 11.5881 6.50125 11.7076 6.44768C11.8272 6.3941 11.921 6.29574 11.9688 6.17375C12.1088 5.79562 12.5625 5.5 13 5.5C13.2652 5.5 13.5196 5.60536 13.7071 5.79289C13.8946 5.98043 14 6.23478 14 6.5C14 6.76522 13.8946 7.01957 13.7071 7.20711C13.5196 7.39464 13.2652 7.5 13 7.5H2C1.86739 7.5 1.74021 7.55268 1.64645 7.64645C1.55268 7.74021 1.5 7.86739 1.5 8C1.5 8.13261 1.55268 8.25979 1.64645 8.35355C1.74021 8.44732 1.86739 8.5 2 8.5H13C13.5304 8.5 14.0391 8.28929 14.4142 7.91421C14.7893 7.53914 15 7.03043 15 6.5C15 5.96957 14.7893 5.46086 14.4142 5.08579C14.0391 4.71071 13.5304 4.5 13 4.5Z" fill="#222222"/>
</svg>
