<svg width="409" height="387" viewBox="0 0 409 387" fill="none" xmlns="http://www.w3.org/2000/svg">
<path d="M346.682 212.627H289.533V313.406H346.682V212.627Z" fill="#2A2A2A"/>
<path d="M300.681 221.82H296.143V229.821H300.681V221.82Z" fill="#F2E6DC"/>
<path d="M313.679 221.82H309.141V229.821H313.679V221.82Z" fill="#F2E6DC"/>
<path d="M326.676 221.82H322.138V229.821H326.676V221.82Z" fill="white"/>
<path d="M339.674 221.82H335.136V229.821H339.674V221.82Z" fill="#F2E6DC"/>
<path d="M300.681 240.123H296.143V248.124H300.681V240.123Z" fill="#F2E6DC"/>
<path d="M313.679 240.123H309.141V248.124H313.679V240.123Z" fill="#F2E6DC"/>
<path d="M326.676 240.123H322.138V248.124H326.676V240.123Z" fill="#F2E6DC"/>
<path d="M339.674 240.123H335.136V248.124H339.674V240.123Z" fill="#F2E6DC"/>
<path d="M300.681 258.428H296.143V266.43H300.681V258.428Z" fill="#F2E6DC"/>
<path d="M313.679 258.428H309.141V266.43H313.679V258.428Z" fill="#F2E6DC"/>
<path d="M326.676 258.428H322.138V266.43H326.676V258.428Z" fill="#F2E6DC"/>
<path d="M339.674 258.428H335.136V266.43H339.674V258.428Z" fill="#F2E6DC"/>
<path d="M300.681 276.731H296.143V284.733H300.681V276.731Z" fill="#F2E6DC"/>
<path d="M313.679 276.731H309.141V284.733H313.679V276.731Z" fill="#F2E6DC"/>
<path d="M326.676 276.731H322.138V284.733H326.676V276.731Z" fill="#F2E6DC"/>
<path d="M339.674 276.731H335.136V284.733H339.674V276.731Z" fill="#F2E6DC"/>
<path d="M300.681 295.034H296.143V303.036H300.681V295.034Z" fill="#F2E6DC"/>
<path d="M313.679 295.034H309.141V303.036H313.679V295.034Z" fill="#F2E6DC"/>
<path d="M326.676 295.034H322.138V303.036H326.676V295.034Z" fill="#F2E6DC"/>
<path d="M339.674 295.034H335.136V303.036H339.674V295.034Z" fill="#F2E6DC"/>
<path d="M408.41 261.651H344.982V380.756H408.41V261.651Z" fill="#2A2A2A"/>
<path d="M357.354 272.517H352.318V281.975H357.354V272.517Z" fill="#D3BBA3"/>
<path d="M371.781 272.517H366.746V281.975H371.781V272.517Z" fill="#D3BBA3"/>
<path d="M386.206 272.517H381.171V281.975H386.206V272.517Z" fill="#D3BBA3"/>
<path d="M401.036 272.517H396V281.975H401.036V272.517Z" fill="white"/>
<path d="M357.354 294.149H352.318V303.607H357.354V294.149Z" fill="#D3BBA3"/>
<path d="M371.781 294.149H366.746V303.607H371.781V294.149Z" fill="#D3BBA3"/>
<path d="M386.206 294.149H381.171V303.607H386.206V294.149Z" fill="#D3BBA3"/>
<path d="M400.632 294.149H395.596V303.607H400.632V294.149Z" fill="#D3BBA3"/>
<path d="M357.354 315.781H352.318V325.239H357.354V315.781Z" fill="#D3BBA3"/>
<path d="M371.781 315.781H366.746V325.239H371.781V315.781Z" fill="#D3BBA3"/>
<path d="M386.206 315.781H381.171V325.239H386.206V315.781Z" fill="#D3BBA3"/>
<path d="M401.036 316H396V325.458H401.036V316Z" fill="white"/>
<path d="M357.354 337.412H352.318V346.87H357.354V337.412Z" fill="#D3BBA3"/>
<path d="M371.781 337.412H366.746V346.87H371.781V337.412Z" fill="#D3BBA3"/>
<path d="M386.206 273H381.171V282.458H386.206V273Z" fill="white"/>
<path d="M400.632 337.412H395.596V346.87H400.632V337.412Z" fill="white"/>
<path d="M357.354 359.046H352.318V368.504H357.354V359.046Z" fill="#D3BBA3"/>
<path d="M371.781 359.046H366.746V368.504H371.781V359.046Z" fill="#D3BBA3"/>
<path d="M386.206 359.046H381.171V368.504H386.206V359.046Z" fill="white"/>
<path d="M401.036 359H396V368.458H401.036V359Z" fill="white"/>
<path d="M393.651 224.089H336.436V331.076H393.651V224.089Z" fill="#2A2A2A"/>
<path d="M347.599 233.849H343.056V242.343H347.599V233.849Z" fill="#E6D0BE"/>
<path d="M360.611 233.849H356.069V242.343H360.611V233.849Z" fill="white"/>
<path d="M373.623 233.849H369.081V242.343H373.623V233.849Z" fill="white"/>
<path d="M386.636 233.849H382.093V242.343H386.636V233.849Z" fill="white"/>
<path d="M347.599 253.28H343.056V261.774H347.599V253.28Z" fill="#E6D0BE"/>
<path d="M360.611 253.28H356.069V261.774H360.611V253.28Z" fill="#E6D0BE"/>
<path d="M373.623 253.28H369.081V261.774H373.623V253.28Z" fill="#E6D0BE"/>
<path d="M386.636 253.28H382.093V261.774H386.636V253.28Z" fill="white"/>
<path d="M347.599 272.711H343.056V281.205H347.599V272.711Z" fill="#E6D0BE"/>
<path d="M360.611 272.711H356.069V281.205H360.611V272.711Z" fill="#E6D0BE"/>
<path d="M373.623 272.711H369.081V281.205H373.623V272.711Z" fill="#E6D0BE"/>
<path d="M386.636 272.711H382.093V281.205H386.636V272.711Z" fill="#E6D0BE"/>
<path d="M347.599 292.143H343.056V300.637H347.599V292.143Z" fill="#E6D0BE"/>
<path d="M360.611 292.143H356.069V300.637H360.611V292.143Z" fill="#E6D0BE"/>
<path d="M373.623 292.143H369.081V300.637H373.623V292.143Z" fill="#E6D0BE"/>
<path d="M386.636 292.143H382.093V300.637H386.636V292.143Z" fill="#E6D0BE"/>
<path d="M347.599 311.574H343.056V320.068H347.599V311.574Z" fill="#E6D0BE"/>
<path d="M360.611 311.574H356.069V320.068H360.611V311.574Z" fill="#E6D0BE"/>
<path d="M373.623 311.574H369.081V320.068H373.623V311.574Z" fill="#E6D0BE"/>
<path d="M386.636 311.574H382.093V320.068H386.636V311.574Z" fill="#E6D0BE"/>
<path d="M238.409 143.43C224.293 154.271 203.093 130.062 181.169 170.531C168.231 194.414 144.095 174.858 131.35 188.187C125.907 193.877 121.262 204.709 125.201 227.312C131.144 225.84 137.087 224.366 143.03 222.894C143.666 217.743 145.402 210.297 151.024 206.487C165.489 196.691 187.088 223.574 209.433 216.586C228.261 210.696 224.95 187.851 243.251 179.984C265.203 170.548 285.979 196.548 316.416 205.857C327.832 209.35 338.156 212.092 351.683 210.012C382.903 205.209 407.725 185.42 402.822 155.716C401.326 146.653 409.234 133.731 407.514 125.326C402.255 99.5929 351.793 56.3495 238.406 143.43H238.409Z" fill="white" fill-opacity="0.1"/>
<path d="M33.6292 388.249H67.6598L61.4934 99.4849H39.7956L33.6292 388.249Z" fill="white"/>
<path d="M48.8785 388.249H33.6292L39.7956 99.4849H48.8785V388.249Z" fill="#2A2A2A" fill-opacity="0.2"/>
<path d="M39.4228 118.092L39.7956 99.4849H61.4934L61.8637 118.092H39.4228Z" fill="#2A2A2A"/>
<path d="M62.5996 154.953H38.687L39.0598 136.346H62.2292L62.5996 154.953Z" fill="#2A2A2A"/>
<path d="M63.3354 191.814H37.9535L38.3239 173.207H62.965L63.3354 191.814Z" fill="#2A2A2A"/>
<path d="M64.0712 228.676H37.2177L37.588 210.066H63.6984L64.0712 228.676Z" fill="#2A2A2A"/>
<path d="M-21.871 388.249H12.1595L5.99314 99.4849H-15.7046L-21.871 388.249Z" fill="white"/>
<path d="M-16.0774 118.092L-15.7046 99.4849H5.99318L6.36355 118.092H-16.0774Z" fill="#2A2A2A"/>
<path d="M7.09927 154.953H-16.8894L-16.492 136.346H6.72891L7.09927 154.953Z" fill="#2A2A2A"/>
<path d="M7.8352 191.814H-17.6767L-17.2793 173.175L7.46483 173.207L7.8352 191.814Z" fill="#2A2A2A"/>
<path d="M8.57105 228.676H-18.4641L-18.0667 210.066H8.19823L8.57105 228.676Z" fill="#2A2A2A"/>
<path d="M258.647 347.184H184.228L187.785 291.313L206.35 270.082L190.488 248.852L192.835 211.977H250.04L252.387 248.852L236.525 270.082L255.09 291.313L258.647 347.184Z" fill="#2A2A2A"/>
<path d="M187.785 291.313H255.09L252.387 248.853H190.488L187.785 291.313Z" fill="white"/>
<path d="M168.258 347.184H93.8412L97.3978 291.313L115.963 270.082L100.101 248.852L102.448 211.977H159.651L161.998 248.852L146.136 270.082L164.701 291.313L168.258 347.184Z" fill="#2A2A2A"/>
<path d="M97.398 291.313H164.704L161.998 248.853H100.101L97.398 291.313Z" fill="white"/>
<path d="M268.664 346.877H74.7166V388.333H268.664V346.877Z" fill="#2A2A2A"/>
<path d="M263.452 356.25H79.7054V363.194H263.452V356.25Z" fill="white"/>
<path d="M263.452 371.381H79.7054V378.325H263.452V371.381Z" fill="white"/>
<path d="M60.7845 310.303V271.995L35.4664 310.303V271.995L10.1507 310.303V271.995L-39.34 346.878H-14.0219H10.1507H11.2962H35.4664H36.6119H60.7845H86.1002V271.995L60.7845 310.303Z" fill="#2A2A2A"/>
<path d="M74.7165 326.705H-39.9999V388.333H74.7165V326.705Z" fill="#2A2A2A"/>
<path d="M65.0498 337.682H39.0277V352.134H65.0498V337.682Z" fill="white"/>
<path d="M65.0498 362.904H39.0277V377.356H65.0498V362.904Z" fill="white"/>
<path d="M29.2606 337.682H3.23853V352.134H29.2606V337.682Z" fill="white"/>
<path d="M29.2606 362.904H3.23853V377.356H29.2606V362.904Z" fill="white"/>
<path d="M380.82 326.975H301.925V388.333H380.82V326.975Z" fill="#2A2A2A"/>
<path d="M347.587 326.975H268.691V388.333H347.587V326.975Z" fill="#D3BBA3"/>
<path d="M289.15 335.504H276.796V347.812H289.15V335.504Z" fill="#E6D0BE"/>
<path d="M289.15 360.076H276.796V372.384H289.15V360.076Z" fill="#E6D0BE"/>
<path d="M313.816 335.504H301.461V347.812H313.816V335.504Z" fill="#E6D0BE"/>
<path d="M313.816 360.076H301.461V372.384H313.816V360.076Z" fill="#E6D0BE"/>
<path d="M338.484 335.504H326.129V347.812H338.484V335.504Z" fill="#E6D0BE"/>
<path d="M338.484 360.076H326.129V372.384H338.484V360.076Z" fill="#E6D0BE"/>
<path opacity="0.3" d="M175.319 32.9862C178.484 32.9862 181.454 33.8079 184.034 35.2453C187.939 27.3962 196.058 22 205.448 22C216.608 22 225.98 29.6258 228.602 39.9326C230.736 39.0006 233.093 38.4806 235.573 38.4806C245.098 38.4806 252.829 46.1089 252.956 55.567C255.358 54.657 257.958 54.1542 260.68 54.1542C272.687 54.1542 282.42 63.8502 282.42 75.8127C282.42 87.7751 272.687 97.4711 260.68 97.4711C251.919 97.4711 244.374 92.3055 240.933 84.8661C237.82 90.1102 232.09 93.6276 225.534 93.6276C218.013 93.6276 211.582 88.9991 208.94 82.4476C205.661 86.2274 200.817 88.6238 195.408 88.6238C185.533 88.6238 177.527 80.6472 177.527 70.8113C177.527 70.0117 177.586 69.2268 177.686 68.4566C176.911 68.5596 176.124 68.6161 175.322 68.6161C165.447 68.6161 157.441 60.6394 157.441 50.8036C157.441 40.9677 165.447 32.9911 175.322 32.9911L175.319 32.9862Z" fill="white"/>
<path opacity="0.3" d="M184.38 71.427C186.904 71.427 189.274 72.0795 191.329 73.2176C194.444 66.9996 200.92 62.7244 208.406 62.7244C217.307 62.7244 224.781 68.7657 226.873 76.9287C228.575 76.1904 230.454 75.7783 232.434 75.7783C240.03 75.7783 246.194 81.8221 246.297 89.3131C248.21 88.5919 250.285 88.1946 252.456 88.1946C262.032 88.1946 269.793 95.8744 269.793 105.35C269.793 114.825 262.029 122.505 252.456 122.505C245.468 122.505 239.451 118.413 236.706 112.519C234.224 116.672 229.655 119.458 224.425 119.458C218.428 119.458 213.297 115.794 211.19 110.604C208.575 113.599 204.712 115.497 200.397 115.497C192.521 115.497 186.136 109.179 186.136 101.386C186.136 100.753 186.183 100.132 186.264 99.5217C185.646 99.6027 185.018 99.6493 184.378 99.6493C176.502 99.6493 170.117 93.3308 170.117 85.5382C170.117 77.7455 176.502 71.427 184.378 71.427H184.38Z" fill="white"/>
<path opacity="0.3" d="M88.4426 76.6393C86.3184 77.2182 84.1795 77.2353 82.1977 76.7889C80.9541 82.5187 76.8063 88.4448 70.505 90.1617C63.0141 92.205 55.0276 88.0548 51.4588 81.9497C50.1907 82.9357 48.6675 83.5955 47.0339 84.1548C32.3169 89.1929 25.7114 74.6132 35.7263 66.8549C29.3122 53.6881 37.9363 47.8602 42.3367 46.6583C47.3846 45.2823 54.2722 47.4776 57.1959 51.1814C58.7339 48.1644 61.5644 45.7483 65.1946 44.7574C71.8246 42.9497 78.5969 46.5823 80.3237 52.8689C80.4635 53.3791 80.5641 53.8917 80.6303 54.4019C81.1331 54.1959 81.6507 54.0144 82.1878 53.8672C88.8178 52.0595 95.5901 55.6921 97.3169 61.9787C99.0437 68.2653 95.0701 74.8267 88.4401 76.6344L88.4426 76.6393Z" fill="white"/>
<path opacity="0.3" d="M-28.9672 78.9694C-26.951 78.0986 -24.8268 77.8215 -22.7738 78.0569C-22.531 71.8317 -18.9033 66.0528 -12.9257 63.4724C-5.81986 60.4039 2.326 62.8322 6.94222 68.876C8.03619 67.6766 9.38769 66.6881 10.9649 66.0062C17.0283 63.3866 24.1317 66.2686 26.9132 72.4424C28.1813 71.1841 29.6947 70.1392 31.4264 69.3911C39.0719 66.0896 48.0394 69.7786 51.4562 77.6302C54.873 85.4817 51.4464 94.5252 43.8034 97.8268C38.2256 100.235 31.9439 98.9207 27.6269 94.9815C27.1437 99.2788 24.4996 103.164 20.3249 104.969C15.5369 107.037 10.1186 105.769 6.56448 102.193C5.55637 105.578 3.1575 108.482 -0.286276 109.968C-6.57533 112.684 -13.951 109.649 -16.7619 103.191C-16.9901 102.666 -17.1765 102.136 -17.3335 101.602C-17.797 101.881 -18.2827 102.136 -18.7929 102.357C-25.0819 105.072 -32.4576 102.038 -35.2686 95.58C-38.0795 89.1217 -35.2612 81.6847 -28.9721 78.9669L-28.9672 78.9694Z" fill="white"/>
<path opacity="0.3" d="M84.361 65.8541C86.4607 64.4217 88.8301 63.654 91.2339 63.4921C90.0442 56.2243 92.8331 48.7653 99.0658 44.5145C106.473 39.4617 116.366 40.5655 123.072 46.6019C124.04 44.983 125.353 43.5506 126.999 42.4272C133.32 38.1151 142.125 39.9645 146.766 46.5332C147.921 44.8089 149.405 43.2783 151.211 42.047C159.18 36.6115 170.311 39.003 176.07 47.3868C181.832 55.7706 180.041 66.9726 172.074 72.4081C166.259 76.3743 158.763 76.1683 152.896 72.5136C153.357 77.5983 151.247 82.656 146.896 85.6264C141.904 89.0309 135.407 88.6998 130.496 85.3026C130.141 89.4381 128.08 93.3087 124.489 95.7566C117.935 100.228 108.779 98.261 104.04 91.366C103.655 90.8068 103.317 90.2304 103.012 89.6442C102.549 90.066 102.053 90.4634 101.521 90.8264C94.9671 95.2979 85.8107 93.3308 81.0718 86.4358C76.3329 79.5409 77.8046 70.3257 84.3586 65.8566L84.361 65.8541Z" fill="white"/>
<path opacity="0.3" d="M124.703 106.846C122.802 107.592 120.825 107.795 118.936 107.54C118.453 113.169 114.857 118.323 109.223 120.53C102.522 123.157 95.0899 120.783 91.0697 115.213C90.01 116.275 88.7174 117.14 87.2285 117.724C81.511 119.966 75.0625 117.204 72.7421 111.558C71.5157 112.669 70.0734 113.581 68.4398 114.222C61.231 117.047 53.09 113.515 50.2545 106.336C47.4191 99.1539 50.9634 91.0448 58.1698 88.2191C63.4287 86.1588 68.4153 86.0386 72.2442 89.6933C72.8697 85.8129 76.2447 83.7991 80.1815 82.2563C84.6972 80.4878 89.6544 81.751 92.794 85.0624C93.8659 82.0208 96.2059 79.4429 99.4534 78.1699C105.382 75.8471 112.078 78.7512 114.411 84.6576C114.6 85.1384 114.752 85.6216 114.872 86.1097C115.313 85.8669 115.772 85.6461 116.253 85.4573C122.181 83.1344 128.878 86.0386 131.21 91.945C133.543 97.8514 130.626 104.523 124.698 106.846H124.703Z" fill="white"/>
<path d="M355.208 467C355.208 467 352.267 364.962 342.22 322.835C342.22 322.835 285.375 310.372 240.547 319.918C240.547 319.918 235.436 397.798 230.802 467H268.049L291.36 384.933L312.337 467H355.205H355.208Z" fill="#363E44"/>
<path d="M342.826 230.621L358.779 343.544L315.248 347.074L310.2 319.921L267.421 317.139L264.095 344.751C264.095 344.751 240.55 340.893 229.404 337.417L233.682 250.982C234.369 243.989 239.664 238.332 246.596 237.187C263.025 234.469 300.055 228.815 342.826 230.621Z" fill="#65C252"/>
<path d="M266.28 327.164C266.064 327.164 265.861 327.034 265.777 326.821L247.916 281.514C247.815 281.257 247.923 280.965 248.168 280.837L263.018 273.086L250.037 265.897C249.777 265.752 249.682 265.426 249.824 265.166L266.95 233.699C267.092 233.436 267.421 233.341 267.683 233.483C267.945 233.625 268.044 233.954 267.899 234.216L251.031 265.213L264.421 272.63C264.595 272.726 264.703 272.91 264.7 273.111C264.7 273.31 264.585 273.491 264.411 273.584L249.103 281.576L266.785 326.431C266.896 326.708 266.758 327.022 266.481 327.132C266.417 327.157 266.349 327.169 266.282 327.169L266.28 327.164Z" fill="white"/>
<path d="M310.782 323.375C310.706 323.375 310.63 323.357 310.556 323.325C310.284 323.2 310.166 322.879 310.291 322.607L330.468 278.819L315.633 269.979C315.462 269.876 315.361 269.689 315.371 269.491C315.381 269.292 315.496 269.113 315.675 269.027L329.462 262.375L314.363 230.478C314.235 230.209 314.351 229.887 314.62 229.757C314.89 229.63 315.212 229.745 315.342 230.015L330.669 262.397C330.797 262.664 330.684 262.986 330.417 263.116L317.051 269.564L331.439 278.139C331.677 278.282 331.771 278.578 331.653 278.831L311.272 323.061C311.182 323.259 310.985 323.375 310.782 323.375Z" fill="white"/>
<path d="M174.969 261.465L190.89 250.449C193.76 248.465 197.427 248.826 200.002 251.259C216.848 267.163 235.326 246.844 235.326 246.844L247.072 248.34L233.341 301.934C192.582 324.535 176.178 290.382 171.034 273.771C169.604 269.15 171.24 264.041 174.966 261.463L174.969 261.465Z" fill="#65C252"/>
<path d="M366.918 329.004C366.918 329.004 411.027 346.735 400.879 295.927C395.105 267.021 364.17 241.833 353.957 234.185C348.715 230.26 342.823 230.621 342.823 230.621L348.727 298.307L366.918 329.004Z" fill="#65C252"/>
<path d="M352.725 298.849C352.49 298.849 352.274 298.694 352.205 298.456L341.697 261.627C341.616 261.34 341.781 261.041 342.068 260.957C342.357 260.876 342.654 261.041 342.735 261.33L353.243 298.159C353.324 298.446 353.159 298.746 352.872 298.829C352.823 298.844 352.772 298.849 352.723 298.849H352.725Z" fill="#E6D0BE"/>
<path d="M231.065 304.431C231.026 304.431 230.984 304.426 230.945 304.417C230.653 304.35 230.471 304.061 230.537 303.769L240.02 262.289C240.086 261.997 240.378 261.816 240.668 261.882C240.959 261.948 241.141 262.238 241.075 262.53L231.592 304.009C231.536 304.26 231.313 304.429 231.065 304.429V304.431Z" fill="#E6D0BE"/>
<path d="M358.242 294.6C357.95 294.6 357.709 294.367 357.702 294.073C357.695 293.774 357.93 293.526 358.227 293.519L384.303 292.815C384.592 292.797 384.85 293.043 384.857 293.339C384.865 293.639 384.629 293.886 384.332 293.894L358.256 294.598C358.256 294.598 358.247 294.598 358.242 294.598V294.6Z" fill="#363E44"/>
<path d="M175.785 206.551C176.6 207.302 177.52 208.037 178.569 208.732C184.738 212.811 190.144 212.139 193.534 217.564C194.449 219.029 194.822 220.304 195.035 221.025C196.568 226.188 200.174 240.14 205.646 260.079C201.778 264.362 196.264 266.574 190.551 268.031C187.039 268.927 183.421 269.584 179.791 269.657C178.204 269.689 176.531 269.623 174.937 269.287C173.033 257.423 170.502 245.669 167.767 230.005C166.138 229.061 163.892 227.699 161.696 225.6L175.785 206.549V206.551Z" fill="#E2A18D"/>
<path d="M210.711 264.244L203.691 250.577L171.929 257.217L173.041 272.542C173.041 272.542 208.101 267.725 210.711 264.244Z" fill="white"/>
<path d="M155.002 227.321L168.661 236.073L211.842 168.683L198.183 159.93L155.002 227.321Z" fill="#D87355"/>
<path d="M155 227.319L168.659 236.072L185.92 209.133L172.261 200.38L155 227.319Z" fill="#363E44"/>
<path d="M195.892 163.51L209.551 172.262L211.845 168.683L198.185 159.93L195.892 163.51Z" fill="#363E44"/>
<path d="M178.91 206.899C180.25 204.581 177.878 200.667 175.329 197.22C173.458 194.692 171.15 192.067 169.205 194.804C166.946 197.988 169.526 201.631 171.393 203.738C174.162 206.865 177.601 209.163 178.91 206.897V206.899Z" fill="#E2A18D"/>
<path d="M176.337 212.855C177.745 210.399 175.153 206.141 172.376 202.381C170.335 199.619 167.826 196.747 165.776 199.639C163.389 202.999 166.205 206.973 168.233 209.281C171.245 212.705 174.961 215.256 176.337 212.857V212.855Z" fill="#E2A18D"/>
<path d="M172.354 218.742C173.897 216.299 171.79 212.31 169.464 208.815C167.757 206.247 165.611 203.595 163.418 206.492C160.867 209.86 163.212 213.559 164.949 215.688C167.524 218.85 170.845 221.128 172.354 218.742Z" fill="#E2A18D"/>
<path d="M168.317 222.686C169.602 220.672 167.958 217.528 166.129 214.788C164.787 212.776 163.092 210.709 161.275 213.11C159.163 215.899 161.002 218.803 162.373 220.461C164.409 222.924 167.061 224.655 168.317 222.686Z" fill="#E2A18D"/>
<path d="M174.086 206.092C173.929 206.092 173.772 206.024 173.664 205.891L168.012 198.913C167.824 198.68 167.86 198.339 168.093 198.153C168.324 197.964 168.665 198 168.854 198.233L174.505 205.212C174.694 205.445 174.657 205.786 174.424 205.972C174.324 206.053 174.203 206.092 174.083 206.092H174.086Z" fill="#363E44"/>
<path d="M170.956 212.2C170.801 212.2 170.647 212.134 170.541 212.006L164.966 205.339C164.775 205.111 164.804 204.77 165.035 204.576C165.263 204.385 165.606 204.415 165.797 204.645L171.373 211.312C171.564 211.54 171.535 211.881 171.304 212.075C171.204 212.161 171.081 212.2 170.958 212.2H170.956Z" fill="#363E44"/>
<path d="M168.27 219.463C168.111 219.463 167.954 219.394 167.848 219.259L162.28 212.281C162.094 212.048 162.133 211.707 162.366 211.52C162.599 211.334 162.94 211.373 163.126 211.606L168.694 218.585C168.881 218.818 168.841 219.159 168.608 219.345C168.508 219.423 168.39 219.463 168.272 219.463H168.27Z" fill="#363E44"/>
<path d="M183.355 213.792C181.606 205.675 182.695 202.379 183.99 202.143C186.168 201.746 190.498 208.065 194.547 219.603C191.285 218.263 186.617 215.131 183.355 213.794V213.792Z" fill="#E2A18D"/>
<path d="M267.423 317.137L310.201 319.918L304.824 230.611L274.993 233.201L267.423 317.137Z" fill="white"/>
<path d="M233.994 363.755C221.261 363.755 208.734 359.527 197.917 351.442C187.633 343.755 178.852 332.815 171.814 318.92C164.816 305.101 160.399 290.148 158.684 274.48C156.916 258.311 156.065 240.268 163.146 229.029C163.305 228.776 163.639 228.7 163.892 228.86C164.144 229.019 164.22 229.353 164.061 229.605C157.156 240.562 158.012 258.379 159.759 274.362C161.458 289.903 165.839 304.728 172.776 318.432C179.735 332.175 188.41 342.99 198.56 350.576C211.95 360.584 228.001 364.577 243.753 361.825C253.996 360.035 263.693 354.513 270.354 346.676C274.617 341.66 277.774 335.484 279.481 328.812C279.555 328.523 279.849 328.349 280.139 328.422C280.428 328.496 280.602 328.79 280.529 329.08C278.78 335.908 275.547 342.234 271.176 347.375C264.352 355.404 254.423 361.057 243.937 362.89C240.626 363.468 237.3 363.755 233.989 363.755H233.994Z" fill="#363E44"/>
<path d="M277.711 331.7L282.02 331.308L281.224 322.561L276.915 322.953L277.711 331.7Z" fill="#D87355"/>
<path d="M321.78 322.668C321.557 322.668 321.349 322.531 321.27 322.308L300.737 264.656H255.824C255.524 264.656 255.284 264.413 255.284 264.117C255.284 263.82 255.527 263.577 255.824 263.577H301.5L301.628 263.937L322.288 321.947C322.389 322.229 322.241 322.538 321.959 322.639C321.9 322.661 321.839 322.671 321.778 322.671L321.78 322.668Z" fill="#363E44"/>
<path d="M274.306 324.932H319.6L298.939 266.923H253.646L274.306 324.932Z" fill="#D87355"/>
<path d="M288.375 302.989C288.505 297.779 324.285 294.801 330.961 294.419C332.504 294.331 340.206 294.161 349.706 293.916C349.735 293.955 349.762 293.994 349.792 294.031C350.829 295.424 351.867 296.791 352.728 298.304C355.983 304.036 356.824 310.424 357.315 316.889C357.557 320.093 357.717 323.36 357.587 326.607C334.395 327.041 308.305 327.179 304.763 327.378C301.459 327.679 293.848 328.393 293.477 326.036C292.972 322.823 300.968 320.878 301.179 320.502C298.707 320.846 290.406 321.613 289.869 318.942C289.457 316.889 297.414 313.678 299.374 312.793C299.202 312.739 289.727 315.315 288.954 312.126C288.297 309.413 295.744 306.114 297.568 305.057C295.231 305.214 288.314 305.476 288.375 302.987V302.989Z" fill="#E2A18D"/>
<path d="M297.473 305.358C297.264 305.358 297.063 305.236 296.975 305.032C296.857 304.757 296.982 304.439 297.257 304.321C298.564 303.757 299.923 303.281 301.294 302.903C303.757 302.226 306.31 301.853 308.884 301.797C309.168 301.787 309.43 302.027 309.435 302.327C309.443 302.626 309.205 302.874 308.908 302.879C306.423 302.935 303.958 303.293 301.581 303.948C300.259 304.311 298.947 304.772 297.684 305.317C297.615 305.346 297.542 305.361 297.471 305.361L297.473 305.358Z" fill="#363E44"/>
<path d="M299.231 313.173C299.001 313.173 298.785 313.024 298.714 312.791C298.626 312.506 298.788 312.202 299.072 312.116C299.359 312.028 299.651 311.942 299.948 311.861C302.41 311.184 304.964 310.811 307.537 310.755C307.831 310.745 308.084 310.985 308.089 311.285C308.096 311.584 307.858 311.831 307.561 311.836C305.077 311.893 302.612 312.251 300.235 312.906C299.948 312.984 299.666 313.068 299.388 313.151C299.335 313.168 299.283 313.176 299.229 313.176L299.231 313.173Z" fill="#363E44"/>
<path d="M301.334 320.966C301.078 320.966 300.85 320.784 300.801 320.524C300.747 320.23 300.941 319.948 301.235 319.894C302.876 319.59 304.559 319.418 306.239 319.381C306.531 319.369 306.786 319.612 306.791 319.911C306.798 320.21 306.561 320.458 306.264 320.463C304.642 320.5 303.016 320.667 301.432 320.958C301.4 320.963 301.365 320.968 301.334 320.968V320.966Z" fill="#363E44"/>
<path d="M363.483 290.448C363.042 289.663 343.495 293.048 343.495 293.048C343.495 293.048 349.421 315.491 350.211 329.004H366.917C366.917 329.004 365.784 294.546 363.483 290.448Z" fill="white"/>
<path d="M317.004 218.307C319.066 213.327 316.701 207.618 311.722 205.555C306.742 203.492 301.033 205.857 298.97 210.837C296.907 215.817 299.272 221.526 304.252 223.589C309.232 225.652 314.941 223.287 317.004 218.307Z" fill="#363E44"/>
<path d="M309.175 223.088C303.495 223.088 298.874 218.467 298.874 212.786C298.874 207.105 303.495 202.484 309.175 202.484C314.856 202.484 319.477 207.105 319.477 212.786C319.477 218.467 314.856 223.088 309.175 223.088ZM309.175 203.566C304.091 203.566 299.955 207.701 299.955 212.786C299.955 217.871 304.091 222.006 309.175 222.006C314.26 222.006 318.396 217.871 318.396 212.786C318.396 207.701 314.26 203.566 309.175 203.566Z" fill="#40484C"/>
<path d="M307.985 227.849C302.305 227.849 297.684 223.228 297.684 217.547C297.684 211.866 302.305 207.245 307.985 207.245C313.666 207.245 318.287 211.866 318.287 217.547C318.287 223.228 313.666 227.849 307.985 227.849ZM307.985 208.327C302.901 208.327 298.765 212.462 298.765 217.547C298.765 222.632 302.901 226.767 307.985 226.767C313.07 226.767 317.206 222.632 317.206 217.547C317.206 212.462 313.07 208.327 307.985 208.327Z" fill="#40484C"/>
<path d="M283.801 233.415H298.925V202.477H283.801V233.415Z" fill="#E2A18D"/>
<path d="M306.911 230.611L299.82 226.039L291.346 230.66L293.767 248.821L306.911 230.611Z" fill="white"/>
<path d="M274.762 233.414L282.675 226.039L291.824 230.895L288.888 248.333L274.762 233.414Z" fill="white"/>
<path d="M293.411 250.238L291.037 232.446C290.997 232.149 291.206 231.877 291.5 231.837C291.797 231.798 292.069 232.007 292.108 232.301L294.122 247.401L306.472 230.294C306.646 230.052 306.985 229.998 307.228 230.172C307.471 230.346 307.525 230.684 307.35 230.927L293.411 250.236V250.238Z" fill="#363E44"/>
<path d="M289.241 249.493L274.37 233.787C274.163 233.571 274.173 233.228 274.392 233.022C274.607 232.816 274.951 232.826 275.157 233.044L288.537 247.175L291.044 232.286C291.093 231.992 291.37 231.793 291.667 231.842C291.961 231.891 292.16 232.171 292.111 232.465L289.246 249.493H289.241Z" fill="#363E44"/>
<path d="M275.849 213.404C278.714 217.26 291.571 213.497 291.571 213.497L301.684 202.86C303.772 196.433 300.254 189.528 293.828 187.441C287.402 185.354 280.497 188.871 278.409 195.298C278.409 195.298 272.932 209.477 275.851 213.404H275.849Z" fill="#E2A18D"/>
<path d="M278.75 198.793C278.75 198.793 274.375 201.152 274.254 202.111C274.112 203.257 277.534 205.097 277.534 205.097C277.534 205.097 278.66 198.773 278.75 198.793Z" fill="#E2A18D"/>
<path d="M283.165 215.8C282.886 215.8 282.65 215.587 282.626 215.303C282.601 215.006 282.825 214.743 283.121 214.721C287.156 214.397 291.311 213.191 291.353 213.178C291.638 213.095 291.939 213.259 292.025 213.546C292.108 213.833 291.944 214.133 291.657 214.218C291.483 214.27 287.352 215.469 283.21 215.803C283.195 215.803 283.18 215.803 283.165 215.803V215.8Z" fill="#363E44"/>
<path d="M290.833 201.27C290.833 201.27 289.072 199.428 286.496 198.592C285.949 198.413 285.557 203.132 286.158 203.053C288.797 202.705 290.833 201.27 290.833 201.27Z" fill="white"/>
<mask id="mask0_1413_418" style="mask-type:luminance" maskUnits="userSpaceOnUse" x="278" y="198" width="13" height="6">
<path d="M290.833 201.27C290.833 201.27 288.24 198.56 284.752 198.221C281.265 197.883 278.198 200.044 278.198 200.044C278.198 200.044 280.791 202.754 284.279 203.093C287.767 203.431 290.833 201.27 290.833 201.27Z" fill="white"/>
</mask>
<g mask="url(#mask0_1413_418)">
<path d="M286.423 198.442C285.273 196.185 282.513 195.29 280.257 196.438C278 197.588 277.105 200.348 278.253 202.604C279.403 204.861 282.162 205.756 284.419 204.608C286.676 203.458 287.571 200.699 286.423 198.442Z" fill="#363E44"/>
</g>
<path d="M279.363 209.173C279.349 209.173 279.334 209.173 279.319 209.173C279.023 209.149 278.799 208.886 278.824 208.589C278.9 207.674 279.498 206.865 280.35 206.531C281.233 206.183 282.246 206.389 282.93 207.056C283.143 207.265 283.148 207.608 282.94 207.822C282.731 208.035 282.388 208.04 282.174 207.831C281.794 207.461 281.233 207.348 280.747 207.54C280.276 207.723 279.945 208.172 279.903 208.68C279.879 208.962 279.643 209.176 279.363 209.176V209.173Z" fill="#363E44"/>
<path d="M303.522 206.84C303.522 206.84 300.294 204.145 295.187 206.833C295.187 206.833 296.578 190.196 281.024 190.662C281.024 190.662 290.836 179.8 300.649 187.174C311.238 195.128 303.524 206.84 303.524 206.84H303.522Z" fill="#363E44"/>
<path d="M302.764 209.671C301.346 211.724 298.748 212.389 296.963 211.157C295.177 209.924 294.88 207.26 296.298 205.207C297.716 203.154 300.313 202.489 302.099 203.72C303.884 204.954 304.184 207.618 302.766 209.671H302.764Z" fill="#E2A18D"/>
<path d="M301.917 207.777C301.905 207.777 301.89 207.777 301.878 207.777C301.581 207.755 301.356 207.498 301.378 207.198C301.422 206.568 301.179 206.004 300.723 205.69C299.948 205.155 298.797 205.474 298.157 206.401C297.988 206.647 297.652 206.708 297.404 206.539C297.159 206.369 297.098 206.031 297.267 205.786C298.245 204.368 300.073 203.924 301.336 204.797C302.109 205.332 302.528 206.257 302.454 207.272C302.435 207.557 302.197 207.775 301.915 207.775L301.917 207.777Z" fill="#363E44"/>
<path d="M278.255 188.638C278.275 188.567 278.292 188.493 278.311 188.422C280.86 179.597 290.08 174.507 298.908 177.056C307.733 179.604 312.823 188.827 310.274 197.652C310.255 197.723 310.228 197.794 310.208 197.866L278.257 188.638H278.255Z" fill="#D87355"/>
<path d="M309.092 190.583C308.871 190.583 308.665 190.448 308.584 190.23C306.813 185.454 302.839 181.763 297.953 180.352C293.232 178.988 288.221 179.835 284.2 182.67C283.955 182.842 283.619 182.785 283.447 182.54C283.276 182.297 283.332 181.959 283.577 181.787C287.867 178.76 293.217 177.858 298.255 179.312C303.47 180.818 307.711 184.758 309.599 189.855C309.702 190.134 309.56 190.446 309.281 190.549C309.219 190.571 309.156 190.583 309.092 190.583Z" fill="#EFBC73"/>
<path d="M307.385 192.732C307.179 192.732 306.983 192.614 306.892 192.415C305.089 188.469 301.282 185.324 296.705 184.002C292.28 182.724 287.669 183.237 284.053 185.405C283.796 185.56 283.465 185.476 283.31 185.219C283.156 184.964 283.239 184.63 283.497 184.476C287.37 182.153 292.295 181.601 297.004 182.96C301.881 184.368 305.945 187.733 307.875 191.964C308 192.236 307.88 192.558 307.608 192.68C307.534 192.715 307.458 192.729 307.382 192.729L307.385 192.732Z" fill="#EFBC73"/>
<path d="M271.99 190.684L311.525 202.102C312.509 202.386 313.534 201.819 313.818 200.836C314.103 199.852 313.536 198.827 312.553 198.542L273.018 187.125C272.034 186.84 271.009 187.407 270.725 188.39C270.44 189.374 271.007 190.399 271.99 190.684Z" fill="#D87355"/>
<path d="M362.47 149.881H338.234L332.825 64.4414H367.876L362.47 149.881Z" fill="#D87355"/>
<path d="M362.468 161.657H338.234V182.329H362.468V161.657Z" fill="#D87355"/>
<path d="M367.876 150.42H343.642C343.358 150.42 343.12 150.2 343.103 149.913L337.694 64.4756C337.684 64.326 337.738 64.1812 337.839 64.0709C337.942 63.9629 338.084 63.8992 338.234 63.8992H373.285C373.434 63.8992 373.577 63.9605 373.68 64.0709C373.783 64.1788 373.834 64.326 373.824 64.4756L368.416 149.913C368.399 150.197 368.161 150.42 367.876 150.42ZM344.15 149.339H367.371L372.711 64.9833H338.813L344.153 149.339H344.15Z" fill="#363E44"/>
<path d="M367.876 182.869H343.642C343.343 182.869 343.103 182.626 343.103 182.329V161.657C343.103 161.358 343.346 161.117 343.642 161.117H367.876C368.176 161.117 368.416 161.36 368.416 161.657V182.329C368.416 182.629 368.173 182.869 367.876 182.869ZM344.184 181.787H367.337V162.196H344.184V181.787Z" fill="#363E44"/>
</svg>
