<svg width="615" height="603" viewBox="0 0 615 603" fill="none" xmlns="http://www.w3.org/2000/svg">
<g clip-path="url(#clip0_1502_418)">
<path d="M363.812 81.5728H469.854V238.442H363.812V81.5728Z" fill="#3EC1F3"/>
<path d="M500.921 81.5728H469.854V238.442H539.504V120.155C539.504 109.922 535.439 100.109 528.203 92.8733C520.967 85.6377 511.154 81.5728 500.921 81.5728V81.5728Z" fill="#3EC1F3"/>
<path d="M506.561 207.696C498.06 207.696 491.168 200.164 491.168 190.872C491.168 181.581 498.06 174.048 506.561 174.048C515.063 174.048 521.954 181.581 521.954 190.872C521.954 200.164 515.063 207.696 506.561 207.696Z" fill="#F4E6D8"/>
<path d="M484.912 191.235H528.21C528.212 195.535 526.932 199.738 524.534 203.308C522.136 206.877 518.729 209.651 514.747 211.276V216.751H498.375V211.276C494.394 209.651 490.986 206.877 488.588 203.308C486.19 199.738 484.911 195.535 484.912 191.235V191.235Z" fill="#4756DF"/>
<path d="M540.304 149.21L471.175 121.147" stroke="#4756DF" stroke-width="2.7378" stroke-miterlimit="10" stroke-linecap="round"/>
<path d="M471.107 81.5728V238.442" stroke="#4756DF" stroke-width="2.7378" stroke-miterlimit="10"/>
<path d="M81.4497 493.194V432.962L117.842 395.94H220.119L256.511 432.962V488.807H383.887V465.583C424.674 461.189 412.128 431.073 434.715 431.073H474.871C477.798 431.062 480.666 431.894 483.133 433.469L539.825 398.432H598.175L671.274 443.606H671.117V500.483L720.212 530.825V582.905H45.0575V530.202L81.4497 493.194Z" fill="#F5EBDD"/>
<path d="M20.5814 582.918H60.1152C60.1152 572.008 51.2653 560.961 40.3483 560.961C29.4314 560.961 20.5814 572.008 20.5814 582.918Z" fill="#FFB7D5"/>
<path d="M-0.000122271 582.918H29.3696C29.3696 574.814 22.7921 566.608 14.6882 566.608C6.58434 566.608 -0.000122271 574.814 -0.000122271 582.918Z" fill="#FFB7D5"/>
<path d="M576.943 319.405C557.778 313.471 533.138 304.943 458.157 366.263C383.175 427.582 354.805 387.481 362.477 378.213C368.637 370.753 403.038 390.882 377.433 418.021C353.1 443.824 281.788 419.143 262.233 403.346C234.403 380.869 194.561 363.189 159.442 361.916" stroke="#FFB7D5" stroke-width="2.7378" stroke-linecap="round" stroke-linejoin="round" stroke-dasharray="8.21 8.21"/>
<path d="M525.069 443.619L598.175 398.446" stroke="#FFB7D5" stroke-width="2.7378" stroke-linecap="round" stroke-linejoin="round"/>
<path d="M670.432 443.619H524.911V582.234" stroke="#FFB7D5" stroke-width="2.7378" stroke-linecap="round" stroke-linejoin="round"/>
<path d="M672.211 521.112H526.013" stroke="#FFB7D5" stroke-width="2.7378" stroke-linecap="round" stroke-linejoin="round"/>
<path d="M258.085 541.824H154.549" stroke="#FFB7D5" stroke-width="2.7378" stroke-linecap="round" stroke-linejoin="round"/>
<path d="M525.069 443.619H490.956" stroke="#FFB7D5" stroke-width="2.7378" stroke-linecap="round" stroke-linejoin="round"/>
<path d="M255.827 432.956H154.234V582.234" stroke="#FFB7D5" stroke-width="2.7378" stroke-linecap="round" stroke-linejoin="round"/>
<path d="M154.234 581.55V432.956H82.8183" stroke="#FFB7D5" stroke-width="2.7378" stroke-linecap="round" stroke-linejoin="round"/>
<path d="M423.421 466.835H384.572" stroke="#FFB7D5" stroke-width="2.7378" stroke-linecap="round" stroke-linejoin="round"/>
<path d="M117.842 582.234V530.216H46.1318" stroke="#FFB7D5" stroke-width="2.7378" stroke-linecap="round" stroke-linejoin="round"/>
<path d="M118.239 396.337L154.234 432.955" stroke="#FFB7D5" stroke-width="2.7378" stroke-linecap="round" stroke-linejoin="round"/>
<path d="M154.234 493.194L117.842 530.216" stroke="#FFB7D5" stroke-width="2.7378" stroke-linecap="round" stroke-linejoin="round"/>
<path d="M82.5035 491.626H153.919" stroke="#FFB7D5" stroke-width="2.7378" stroke-linecap="round" stroke-linejoin="round"/>
<path d="M474.104 432.326C496.691 432.326 484.145 462.441 524.932 466.836H423.264C464.07 462.448 451.518 432.326 474.104 432.326Z" stroke="#FFB7D5" stroke-width="2.7378" stroke-linecap="round" stroke-linejoin="round"/>
<path d="M524.932 581.549V466.842H423.284V582.234" stroke="#FFB7D5" stroke-width="2.7378" stroke-linecap="round" stroke-linejoin="round"/>
<path d="M423.421 581.55V500.093H258.078V582.234" stroke="#FFB7D5" stroke-width="2.7378" stroke-linecap="round" stroke-linejoin="round"/>
<path d="M423.127 498.56L384.934 487.54" stroke="#FFB7D5" stroke-width="2.7378" stroke-linecap="round" stroke-linejoin="round"/>
<path d="M258.078 489.484V500.093H423.421" stroke="#FFB7D5" stroke-width="2.7378" stroke-linecap="round" stroke-linejoin="round"/>
<path d="M390.574 518.922H390.41C387.44 518.922 384.592 520.102 382.492 522.202C380.392 524.302 379.212 527.15 379.212 530.12V582.925H401.799V530.12C401.799 528.647 401.509 527.189 400.944 525.829C400.38 524.468 399.552 523.233 398.51 522.192C397.467 521.152 396.229 520.328 394.868 519.767C393.506 519.206 392.047 518.919 390.574 518.922V518.922Z" fill="#FFB7D5"/>
<path d="M289.549 518.922H289.358C286.388 518.922 283.54 520.102 281.44 522.202C279.34 524.302 278.16 527.15 278.16 530.12V582.925H300.747V530.12C300.747 527.15 299.567 524.302 297.467 522.202C295.367 520.102 292.519 518.922 289.549 518.922Z" fill="#FFB7D5"/>
<path d="M340.062 518.922H339.87C336.9 518.922 334.052 520.102 331.952 522.202C329.852 524.302 328.673 527.15 328.673 530.12V582.925H351.26V530.12C351.26 527.15 350.08 524.302 347.98 522.202C345.88 520.102 343.032 518.922 340.062 518.922Z" fill="#FFB7D5"/>
<path d="M80.2859 544.644H80.0943C77.1245 544.644 74.2764 545.824 72.1764 547.924C70.0764 550.024 68.8967 552.872 68.8967 555.842V582.918H91.4835V555.842C91.4835 552.872 90.3038 550.024 88.2038 547.924C86.1039 545.824 83.2557 544.644 80.2859 544.644V544.644Z" fill="#FFB7D5"/>
<path d="M555.13 544.644H554.938C553.466 544.642 552.009 544.931 550.649 545.493C549.288 546.054 548.052 546.879 547.011 547.919C545.97 548.959 545.144 550.194 544.58 551.553C544.017 552.913 543.727 554.37 543.727 555.842V582.918H566.313V555.842C566.313 552.874 565.136 550.028 563.039 547.929C560.942 545.829 558.097 544.648 555.13 544.644V544.644Z" fill="#FFB7D5"/>
<path d="M598.113 544.644H597.921C594.952 544.644 592.103 545.824 590.003 547.924C587.903 550.024 586.724 552.872 586.724 555.842V582.918H609.311V555.842C609.311 552.872 608.131 550.024 606.031 547.924C603.931 545.824 601.083 544.644 598.113 544.644V544.644Z" fill="#FFB7D5"/>
<path d="M543.74 463.701H566.327V501.975H543.74V463.701Z" fill="#FFB7D5"/>
<path d="M586.724 463.701H609.311V501.975H586.724V463.701Z" fill="#FFB7D5"/>
<path d="M482.585 486.288H501.353V514.521H482.585V486.288Z" fill="#FFB7D5"/>
<path d="M446.87 486.288H465.638V514.521H446.87V486.288Z" fill="#FFB7D5"/>
<path d="M482.585 535.862H501.353V564.096H482.585V535.862Z" fill="#FFB7D5"/>
<path d="M446.87 535.862H465.638V564.096H446.87V535.862Z" fill="#FFB7D5"/>
<path d="M214.65 448.643H233.418V476.877H214.65V448.643Z" fill="#FFB7D5"/>
<path d="M178.936 448.643H197.703V476.877H178.936V448.643Z" fill="#FFB7D5"/>
<path d="M106.774 448.643H125.542V476.877H106.774V448.643Z" fill="#FFB7D5"/>
<path d="M214.65 498.21H233.418V526.444H214.65V498.21Z" fill="#FFB7D5"/>
<path d="M178.936 498.21H197.703V526.444H178.936V498.21Z" fill="#FFB7D5"/>
<path d="M573.384 283.93C573.384 298.05 588.442 314.361 594.41 314.361C600.379 314.361 615.43 298.05 615.43 283.93C615.33 278.42 613.072 273.17 609.14 269.308C605.208 265.447 599.918 263.283 594.407 263.283C588.896 263.283 583.605 265.447 579.674 269.308C575.742 273.17 573.483 278.42 573.384 283.93V283.93Z" fill="#FFB7D5"/>
<path d="M594.41 290.522C590.77 290.522 587.819 287.571 587.819 283.931C587.819 280.29 590.77 277.339 594.41 277.339C598.05 277.339 601.001 280.29 601.001 283.931C601.001 287.571 598.05 290.522 594.41 290.522Z" fill="white"/>
<path d="M114.077 330.302C114.077 344.422 129.135 360.732 135.097 360.732C141.058 360.732 156.116 344.422 156.116 330.302C156.116 324.727 153.901 319.381 149.96 315.439C146.018 311.497 140.671 309.282 135.097 309.282C129.522 309.282 124.175 311.497 120.234 315.439C116.292 319.381 114.077 324.727 114.077 330.302Z" fill="#FFB7D5"/>
<path d="M135.097 336.893C131.456 336.893 128.505 333.942 128.505 330.302C128.505 326.661 131.456 323.71 135.097 323.71C138.737 323.71 141.688 326.661 141.688 330.302C141.688 333.942 138.737 336.893 135.097 336.893Z" fill="white"/>
<path d="M402.189 194.384C450.902 224.164 467.842 307.119 478.163 337.386C489.327 370.116 513.912 369.37 542.44 378.898C570.968 388.425 569.907 409.198 569.907 409.198C576.575 413.741 582.946 418.704 588.982 424.058L552.864 470.217C544.343 464.337 531.694 456.966 514.343 446.487C478.505 424.838 446.425 404.51 425.721 381.923C405.016 359.336 350.602 260.296 350.602 260.296L402.189 194.384Z" fill="#4856DF"/>
<path d="M552.864 470.217L588.989 424.064C605.142 438.438 614.82 452.127 619.687 460.094L568.757 525.158C561.584 512.153 567.285 493.851 566.704 485.863C566.313 481.052 561.947 476.486 552.864 470.217Z" fill="#30242A"/>
<path d="M623.643 467.267L573.569 531.242C571.641 529.5 570.021 527.446 568.778 525.164L619.701 460.101C621.143 462.416 622.459 464.809 623.643 467.267V467.267Z" fill="#3EC1F3"/>
<path d="M571.385 472.955L561.687 478.355" stroke="white" stroke-width="2.7378" stroke-linecap="round" stroke-linejoin="round"/>
<path d="M575.704 482.715L565.985 484.919" stroke="white" stroke-width="2.7378" stroke-linecap="round" stroke-linejoin="round"/>
<path d="M558.36 427.589L575.663 441.114" stroke="#3EC1F3" stroke-width="2.7378" stroke-miterlimit="10" stroke-linecap="round"/>
<path d="M567.121 416.385L584.424 429.909" stroke="#3EC1F3" stroke-width="2.7378" stroke-miterlimit="10" stroke-linecap="round"/>
<path d="M549.599 438.793L566.902 452.318" stroke="#3EC1F3" stroke-width="2.7378" stroke-miterlimit="10" stroke-linecap="round"/>
<path d="M540.838 449.999L558.141 463.523" stroke="#3EC1F3" stroke-width="2.7378" stroke-miterlimit="10" stroke-linecap="round"/>
<path d="M571.474 409.793L533.508 458.362" stroke="#3EC1F3" stroke-width="2.7378" stroke-miterlimit="10" stroke-linecap="round"/>
<path d="M387.111 323.389C395.358 310.384 403.428 296.011 409.561 281.179" stroke="#30242A" stroke-width="2.7378" stroke-linecap="round" stroke-linejoin="round"/>
<path d="M373.538 11.9231C370.246 11.9231 367.577 9.25404 367.577 5.96156C367.577 2.66908 370.246 0 373.538 0C376.831 0 379.5 2.66908 379.5 5.96156C379.5 9.25404 376.831 11.9231 373.538 11.9231Z" fill="#4756DF"/>
<path d="M354.613 92.8662L355.024 85.9396C347.05 86.9389 341.143 85.7548 336.92 83.5919L355.024 69.02C355.024 69.02 348.754 66.5149 352.519 53.3324L332.369 46.0088C333.43 43.271 334.135 36.6729 336.167 29.582L348.166 34.8044C350.967 40.1798 354.984 44.8272 359.897 48.377C361.927 46.2778 364.194 44.4219 366.653 42.8467C366.981 42.6345 367.337 42.436 367.666 42.2375H367.7C368.035 42.0459 368.384 41.8611 368.72 41.6831H368.775C369.117 41.512 369.459 41.3409 369.808 41.1903L369.877 41.0671C370.212 40.9097 370.561 40.7728 370.91 40.6359H371.006C371.355 40.5127 371.69 40.3963 372.046 40.2868H372.163C372.505 40.1842 372.847 40.0952 373.203 40.0199H373.326C373.675 39.9446 374.011 39.8898 374.367 39.8488H374.503C374.846 39.8146 375.188 39.794 375.537 39.7872C378.528 39.7461 381.492 40.9644 383.963 44.4209C385.438 46.4249 386.238 48.8455 386.249 51.3338C386.201 58.6917 379.356 65.7073 373.244 67.7606C378.076 77.9521 393.689 84.3106 399.677 86.4256C399.486 88.7595 399.301 90.9292 399.137 92.8662H354.613Z" fill="#EAA58B"/>
<path d="M232.822 134.905C235.656 134.905 237.025 132.605 235.882 129.772L226.299 106.11L226.375 106.042L226.21 105.884C223.562 103.396 221.096 100.719 218.832 97.8764C214.506 92.3666 213.206 88.3625 214.725 86.7267C215.161 86.2874 215.738 86.0159 216.354 85.9601C216.981 85.8843 217.616 85.9214 218.23 86.0696C223.117 87.1374 231.488 93.7971 240.817 104.782C252.103 118.054 274.054 144.316 274.054 144.316C276.34 142.571 279.659 139.614 283.636 136.048L315.216 176.65C308.449 181.917 301.224 186.569 293.629 190.551C292.196 186.115 289.461 182.213 285.78 179.354C282.098 176.494 277.642 174.808 272.989 174.517C268.337 174.225 263.704 175.34 259.695 177.718C255.685 180.096 252.484 183.625 250.508 187.847C231.481 173.631 216.45 148.266 209.407 134.905H232.822Z" fill="#EAA58B"/>
<path d="M337.454 101.647H347.105C328.7 112.736 336.838 133.652 336.838 133.652C336.838 133.652 311.698 151.222 328.673 172.556C327.427 171.246 326.371 169.767 325.538 168.162C325.538 168.162 321.486 171.886 315.271 176.649L283.691 136.048C298.358 122.961 322.17 101.647 337.454 101.647Z" fill="#FFB7D5"/>
<path d="M434.085 135.521C434.085 135.521 452.565 150.928 440.074 171.557L433.496 134.597L434.085 135.521Z" fill="#FF7235"/>
<path d="M399.164 92.8662V93.0921L398.37 92.8662H399.164Z" fill="#FF7235"/>
<path d="M373.299 67.7603C379.383 65.7069 386.228 58.7119 386.303 51.3335L401.984 58.178C401.375 66.8157 400.492 77.7053 399.759 86.4252C393.716 84.3103 378.09 77.9517 373.299 67.7603Z" fill="#30242A"/>
<path d="M355.024 69.02L336.92 83.5919C333.334 81.8637 330.493 78.8984 328.919 75.2416C326.25 68.5614 327.974 62.812 330.055 55.3515C330.055 55.3515 324.751 51.7992 325.579 48.507C326.263 45.8308 332.307 46.2004 332.307 46.2004L332.369 46.0293L352.519 53.3529C348.754 66.5149 355.024 69.02 355.024 69.02Z" fill="#30242A"/>
<path d="M359.897 48.3632C354.984 44.8134 350.967 40.1659 348.166 34.7905L366.646 42.8328C364.19 44.4084 361.925 46.2644 359.897 48.3632Z" fill="#30242A"/>
<path d="M369.806 41.1299L369.876 41.0669L369.806 41.1299Z" fill="#4756DF"/>
<path d="M383.976 44.3523C381.505 40.8958 378.542 39.6775 375.551 39.7186H375.619C377.337 20.7251 373.1 10.3968 369.959 5.49609C372.971 5.94096 375.946 6.61365 378.856 7.50838C400.629 14.0996 403.127 35.5708 402.518 48.3426C402.402 50.9025 402.183 54.311 401.916 58.1576L386.235 51.3131C386.243 48.8115 385.451 46.3728 383.976 44.3523V44.3523Z" fill="#4756DF"/>
<path d="M367.7 42.2028C368.036 42.0112 368.385 41.8264 368.72 41.6484C368.371 41.8264 368.036 42.0112 367.7 42.2028Z" fill="#3EC1F3"/>
<path d="M366.653 42.8328C366.981 42.6206 367.337 42.4221 367.666 42.2236C367.324 42.4358 366.981 42.6206 366.653 42.8328Z" fill="#3EC1F3"/>
<path d="M372.176 40.2523C372.518 40.1496 372.861 40.0606 373.217 39.9854C372.867 40.0606 372.518 40.1496 372.176 40.2523Z" fill="#3EC1F3"/>
<path d="M368.775 41.6212C369.117 41.4501 369.459 41.279 369.808 41.1284C369.459 41.279 369.117 41.4501 368.775 41.6212Z" fill="#3EC1F3"/>
<path d="M374.517 39.7804C374.86 39.7462 375.202 39.7257 375.551 39.7188C375.209 39.6983 374.86 39.7462 374.517 39.7804Z" fill="#3EC1F3"/>
<path d="M373.34 39.9651C373.689 39.8898 374.024 39.835 374.38 39.7939C374.031 39.835 373.689 39.8898 373.34 39.9651Z" fill="#3EC1F3"/>
<path d="M371.02 40.6289C371.369 40.5056 371.704 40.3893 372.06 40.2798C371.711 40.3825 371.369 40.5056 371.02 40.6289Z" fill="#3EC1F3"/>
<path d="M369.876 41.0669C370.212 40.9095 370.561 40.7726 370.91 40.6357C370.561 40.8 370.225 40.9369 369.876 41.0669Z" fill="#3EC1F3"/>
<path d="M375.619 39.6977H375.55C375.208 39.6977 374.866 39.6977 374.517 39.7593H374.38C374.031 39.8003 373.696 39.8551 373.34 39.9304H373.216C372.867 40.0057 372.532 40.0946 372.176 40.1973H372.06C371.711 40.3068 371.375 40.4232 371.019 40.5464H370.924C370.575 40.6833 370.239 40.8202 369.89 40.9776L369.808 41.0118C369.459 41.1624 369.123 41.3335 368.774 41.5046H368.72C368.371 41.6826 368.035 41.8674 367.7 42.059H367.666C367.323 42.2575 366.981 42.456 366.653 42.6682L348.172 34.6259L336.174 29.4035C339.836 16.6317 347.81 2.20352 369.965 5.35199C373.1 10.3895 377.337 20.7179 375.619 39.6977Z" fill="#3EC1F3"/>
<path d="M271.576 174.438C276.491 174.44 281.278 176.001 285.25 178.896C289.221 181.791 292.172 185.872 293.677 190.55C283.602 195.67 272.945 198.819 264.67 195.773C259.601 193.822 254.839 191.152 250.529 187.847C252.396 183.84 255.369 180.449 259.097 178.073C262.826 175.698 267.155 174.437 271.576 174.438V174.438Z" fill="#CA7358"/>
<path d="M334.285 213.028C311.698 198.278 327.441 173.166 328.673 172.557C311.733 151.222 336.831 133.653 336.831 133.653C336.831 133.653 328.7 112.736 347.098 101.648H354.093L354.613 92.8662H398.35L399.144 93.0921L398.404 101.648H412.518L433.496 134.604L440.074 171.564L439.738 172.119C439.962 172.534 440.19 172.951 440.423 173.371C444.666 181.721 445.289 188.826 444.201 194.589C441.935 206.642 432.23 212.994 432.23 212.994H334.285V213.028Z" fill="#FF7235"/>
<path d="M432.203 224.027H334.32V215.225V213.028H432.203V215.225V224.027Z" fill="#30242A"/>
<path d="M442.428 133.652H336.831" stroke="#A15842" stroke-width="2.7378" stroke-miterlimit="10" stroke-linecap="round"/>
<path d="M439.909 172.556H328.125" stroke="#A15842" stroke-width="2.7378" stroke-miterlimit="10" stroke-linecap="round"/>
<path d="M352.519 106.042L352.751 102.332" stroke="#A15842" stroke-width="2.7378" stroke-miterlimit="10" stroke-linecap="round"/>
<path d="M364.442 104.16L365.065 94.1187" stroke="#A15842" stroke-width="2.7378" stroke-miterlimit="10" stroke-linecap="round"/>
<path d="M373.853 104.16L374.476 94.1187" stroke="#A15842" stroke-width="2.7378" stroke-miterlimit="10" stroke-linecap="round"/>
<path d="M383.264 104.16L383.887 94.1187" stroke="#A15842" stroke-width="2.7378" stroke-miterlimit="10" stroke-linecap="round"/>
<path d="M275.368 143.789L282.869 153.104" stroke="#A15842" stroke-width="2.7378" stroke-linecap="round" stroke-linejoin="round"/>
<path d="M363.812 85.3374C361.037 86.3079 358.163 86.9667 355.243 87.3018" stroke="#A15842" stroke-width="2.7378" stroke-miterlimit="10" stroke-linecap="round"/>
<path d="M218.832 97.8764C218.798 99.7176 217.463 101.018 215.362 101.018H194.89C192.056 101.018 188.826 98.7182 187.676 95.8778L181.434 80.4229C180.291 77.5893 181.66 75.2896 184.493 75.2896H204.972C207.806 75.2896 211.036 77.5893 212.179 80.4229L214.725 86.7267C213.206 88.3694 214.506 92.4008 218.832 97.8764Z" fill="#F5EBDD"/>
<path d="M176.677 65.2549H182.207L182.693 66.4527C183.077 67.3443 183.698 68.1136 184.488 68.6771C185.279 69.2407 186.208 69.5768 187.176 69.6491H197.731C199.49 69.6491 200.345 68.2185 199.633 66.4527L199.147 65.2549H204.678C207.518 65.2549 210.742 67.5546 211.892 70.3951L218.23 86.0758C217.616 85.9276 216.981 85.8905 216.355 85.9663C215.738 86.0221 215.161 86.2936 214.726 86.7329L212.179 80.4291C211.036 77.5955 207.806 75.2958 204.972 75.2958H184.493C181.66 75.2958 180.291 77.5955 181.434 80.4291L187.676 95.884C188.826 98.7245 192.057 101.024 194.89 101.024H215.362C217.491 101.024 218.784 99.7238 218.832 97.8826C221.103 100.724 223.576 103.398 226.231 105.884L226.32 106.11L235.902 129.771C237.045 132.605 235.677 134.904 232.843 134.904H204.835C202.002 134.904 198.771 132.605 197.628 129.771L173.672 70.3951C172.468 67.5546 173.836 65.2549 176.677 65.2549ZM204.055 125.486C204.428 126.353 205.032 127.101 205.8 127.649C206.563 128.242 207.491 128.581 208.456 128.621H224.089C225.827 128.621 226.662 127.218 225.964 125.486C225.584 124.612 224.973 123.858 224.196 123.306C223.42 122.753 222.507 122.423 221.556 122.352H205.869C204.171 122.359 203.336 123.762 204.034 125.493L204.055 125.486Z" fill="#4756DF"/>
<path d="M205.903 122.359H221.591C222.541 122.431 223.454 122.761 224.231 123.313C225.007 123.865 225.619 124.619 225.998 125.494C226.683 127.225 225.862 128.628 224.123 128.628H208.435C207.471 128.589 206.542 128.249 205.78 127.657C205.011 127.108 204.408 126.36 204.034 125.494C203.336 123.762 204.171 122.359 205.903 122.359Z" fill="#3EC1F3"/>
<path d="M197.731 69.6491H187.176C186.208 69.5768 185.279 69.2407 184.488 68.6771C183.698 68.1136 183.077 67.3443 182.693 66.4527L182.207 65.2549H199.147L199.633 66.4527C200.345 68.2185 199.49 69.6491 197.731 69.6491Z" fill="#3EC1F3"/>
<path d="M320.514 23.8462L362.553 42.6686" stroke="#30242A" stroke-width="2.7378" stroke-linecap="round" stroke-linejoin="round"/>
<path d="M334.018 63.1059C335.278 63.4413 339.398 62.75 340.076 59.2114" stroke="black" stroke-width="2.7378" stroke-miterlimit="10" stroke-linecap="round"/>
<path d="M340.5 45.2077C339.381 45.2077 338.474 44.3006 338.474 43.1817C338.474 42.0628 339.381 41.1558 340.5 41.1558C341.619 41.1558 342.526 42.0628 342.526 43.1817C342.526 44.3006 341.619 45.2077 340.5 45.2077Z" fill="#30242A"/>
<path d="M375.277 52.374L367.919 57.0557" stroke="#A15842" stroke-width="2.7378" stroke-miterlimit="10" stroke-linecap="round"/>
<path d="M359.418 47.063L351.259 53.3325" stroke="#30242A" stroke-width="2.7378" stroke-linecap="round" stroke-linejoin="round"/>
<path d="M375.106 68.3975L353.142 69.0203" stroke="#30242A" stroke-width="2.7378" stroke-linecap="round" stroke-linejoin="round"/>
<path d="M289.796 215.226C287.3 215.226 284.906 216.217 283.141 217.982C281.376 219.747 280.385 222.141 280.385 224.637V224.637C280.381 225.875 280.622 227.102 281.093 228.248C281.564 229.393 282.257 230.434 283.131 231.312C284.005 232.189 285.044 232.885 286.187 233.361C287.331 233.836 288.557 234.081 289.796 234.082" stroke="#FF7235" stroke-width="2.7378" stroke-miterlimit="10"/>
<path d="M276.593 215.226C274.102 215.233 271.715 216.228 269.956 217.992C268.197 219.756 267.209 222.146 267.209 224.637C267.202 227.133 268.186 229.531 269.946 231.302C271.705 233.073 274.096 234.073 276.593 234.082" stroke="#FF7235" stroke-width="2.7378" stroke-miterlimit="10"/>
<path d="M208.757 216.478H312.424C316.892 216.478 320.514 220.1 320.514 224.568V224.705C320.514 229.173 316.892 232.795 312.424 232.795H208.757C204.289 232.795 200.667 229.173 200.667 224.705V224.568C200.667 220.1 204.289 216.478 208.757 216.478Z" fill="#30242A"/>
<path d="M191.371 564.266L253.811 216.89L269.871 219.776L207.431 567.153L191.371 564.266Z" fill="#30242A"/>
<path d="M312.287 216.478H312.424C316.892 216.478 320.514 220.1 320.514 224.568V224.705C320.514 229.173 316.892 232.795 312.424 232.795H312.287C307.819 232.795 304.197 229.173 304.197 224.705V224.568C304.197 220.1 307.819 216.478 312.287 216.478Z" stroke="#FF7235" stroke-width="2.7378" stroke-miterlimit="10"/>
<path d="M233.972 215.739C232.125 216.381 230.523 217.583 229.389 219.178C228.256 220.772 227.647 222.68 227.648 224.637V224.637C227.648 226.465 228.181 228.253 229.182 229.784C230.182 231.314 231.607 232.52 233.281 233.254" stroke="#FF7235" stroke-width="2.7378" stroke-miterlimit="10" stroke-linecap="round"/>
<path d="M223.021 215.739C221.173 216.381 219.572 217.583 218.438 219.178C217.305 220.772 216.696 222.68 216.697 224.637V224.637C216.697 226.465 217.23 228.253 218.23 229.784C219.231 231.314 220.655 232.52 222.33 233.254" stroke="#FF7235" stroke-width="2.7378" stroke-miterlimit="10" stroke-linecap="round"/>
<path d="M199.414 566.608H428.438V582.925H199.414V566.608Z" fill="#30242A"/>
<path d="M414.324 603C403.234 603 394.243 594.009 394.243 582.918C394.243 571.827 403.234 562.836 414.324 562.836C425.415 562.836 434.406 571.827 434.406 582.918C434.406 594.009 425.415 603 414.324 603Z" fill="#30242A"/>
<path d="M414.325 590.448C410.167 590.448 406.796 587.077 406.796 582.919C406.796 578.76 410.167 575.39 414.325 575.39C418.483 575.39 421.854 578.76 421.854 582.919C421.854 587.077 418.483 590.448 414.325 590.448Z" fill="#FFB7D5"/>
<path d="M195.855 603C184.764 603 175.774 594.009 175.774 582.918C175.774 571.827 184.764 562.836 195.855 562.836C206.946 562.836 215.937 571.827 215.937 582.918C215.937 594.009 206.946 603 195.855 603Z" fill="#30242A"/>
<path d="M195.855 590.448C191.697 590.448 188.326 587.077 188.326 582.919C188.326 578.76 191.697 575.39 195.855 575.39C200.013 575.39 203.384 578.76 203.384 582.919C203.384 587.077 200.013 590.448 195.855 590.448Z" fill="#FFB7D5"/>
<path d="M382.949 582.919H445.693C445.571 574.679 442.212 566.817 436.342 561.033C430.472 555.249 422.562 552.007 414.321 552.007C406.08 552.007 398.17 555.249 392.3 561.033C386.43 566.817 383.071 574.679 382.949 582.919V582.919Z" fill="#FF7235"/>
<path d="M164.487 582.919H227.23C227.109 574.679 223.75 566.817 217.88 561.033C212.01 555.249 204.1 552.007 195.859 552.007C187.618 552.007 179.708 555.249 173.838 561.033C167.967 566.817 164.609 574.679 164.487 582.919V582.919Z" fill="#FF7235"/>
<path d="M352.327 512.016H293.642C292.958 501.749 291.014 487.417 288.625 467.732C283.588 426.165 279.81 388.377 284.847 358.152C289.885 327.926 334.319 224 334.319 224H418.007C424.578 280.706 369.698 345.188 352.231 371.971C333.34 400.943 349.083 419.834 359.158 448.17C369.233 476.507 352.231 488.478 352.231 488.478C352.752 496.314 352.784 504.175 352.327 512.016V512.016Z" fill="#4856DF"/>
<path d="M342.841 559.079H260.214C266.052 545.39 283.957 538.621 289.885 533.227C293.533 529.914 294.382 523.453 293.642 512.009H352.327C351.047 533.912 346.167 550.222 342.841 559.079Z" fill="#30242A"/>
<path d="M339.638 566.608H258.393C258.57 564.013 259.185 561.468 260.214 559.079H342.841C341.91 561.645 340.84 564.158 339.638 566.608V566.608Z" fill="#3EC1F3"/>
<path d="M329.508 490.682V511.284" stroke="#3EC1F3" stroke-width="2.7378" stroke-miterlimit="10" stroke-linecap="round"/>
<path d="M343.731 490.682V511.284" stroke="#3EC1F3" stroke-width="2.7378" stroke-miterlimit="10" stroke-linecap="round"/>
<path d="M315.285 490.682V511.284" stroke="#3EC1F3" stroke-width="2.7378" stroke-miterlimit="10" stroke-linecap="round"/>
<path d="M301.062 490.682V511.284" stroke="#3EC1F3" stroke-width="2.7378" stroke-miterlimit="10" stroke-linecap="round"/>
<path d="M352.081 490.052H291.849" stroke="#3EC1F3" stroke-width="2.7378" stroke-miterlimit="10" stroke-linecap="round"/>
<path d="M314.265 272.712C316.318 267.633 318.276 262.719 320.158 258.099L350.958 252.692V252.801C351.567 256.266 350.775 259.83 348.756 262.71C346.737 265.591 343.656 267.551 340.192 268.16L314.265 272.712Z" fill="#3EC1F3"/>
<path d="M302.944 528.956L293.218 524.973" stroke="white" stroke-width="2.7378" stroke-linecap="round" stroke-linejoin="round"/>
<path d="M297.92 538.374L289.796 531.817" stroke="white" stroke-width="2.7378" stroke-linecap="round" stroke-linejoin="round"/>
<path d="M196.902 127.992C196.902 127.992 186.129 128.416 185.267 119.005C185.267 119.005 177.574 115.467 179.586 108.437C179.586 108.437 172.55 106.425 174.562 99.3889C174.692 98.944 170.565 98.1432 170.77 92.3459C171.071 83.8861 176.807 77.7945 179.312 77.1648C186.841 75.2826 183.98 87.5137 184.336 87.2057C188.723 83.4412 195.13 81.7301 197.416 83.6465C201.399 86.9867 198.634 91.4493 198.634 91.4493C198.634 91.4493 203.74 90.2446 206.238 93.9338C209.277 98.4101 203.843 102.585 203.843 102.585C203.843 102.585 209.537 103.222 208.586 108.492C207.532 114.385 198.682 115.699 194.486 121.873L196.902 127.992Z" fill="#EAA58B"/>
<path d="M204.075 101.503C198.08 103.755 187.649 108.745 184.685 116.979" stroke="#A15842" stroke-width="2.7378" stroke-linecap="round" stroke-linejoin="round"/>
<path d="M197.354 91.0317C192.221 93.8311 183.152 99.5805 179.066 107.082" stroke="#A15842" stroke-width="2.7378" stroke-linecap="round" stroke-linejoin="round"/>
<path d="M183.364 86.2407C179.99 89.2386 176.328 93.229 174.09 97.8764" stroke="#A15842" stroke-width="2.7378" stroke-linecap="round" stroke-linejoin="round"/>
<path d="M398.322 101.647C398.322 101.647 375.831 135.521 382.005 168.162C386.399 191.379 439.109 211.495 469.854 218.339V200.16C469.854 200.16 405.851 184.48 398.322 156.239C393.757 139.128 412.128 101.647 412.128 101.647" fill="#F5EBDD"/>
<path d="M249.612 211.495C253.376 202.077 265.299 192.043 279.105 187.019C305.634 177.375 370.089 191.413 370.089 191.413L379.746 170.791L427.268 194.062C420.423 207.415 412.21 218.64 403.818 226.402C400.961 222.864 397.128 220.244 392.794 218.867C388.46 217.49 383.817 217.416 379.442 218.656C375.067 219.896 371.152 222.394 368.185 225.839C365.217 229.285 363.328 233.527 362.751 238.038C336.475 235.984 307.414 223.972 299.173 216.56C299.173 216.56 294.156 220.954 288.509 221.577C288.509 223.459 297.291 248.558 281.603 242.911C281.603 242.911 277.216 248.558 270.939 242.288C270.939 242.288 266.545 248.558 260.269 242.911C260.269 242.911 256.847 245.053 252.117 239.776C246.477 233.397 244.807 223.466 249.612 211.495Z" fill="#EAA58B"/>
<path d="M412.127 101.647H413.681C426.419 101.647 447.274 111.065 444.762 135.459C442.557 155.879 436.63 175.723 427.274 194.007L379.753 170.736L412.127 101.647Z" fill="#FFB7D5"/>
<path d="M385.769 217.73C389.23 217.728 392.648 218.501 395.771 219.992C398.895 221.483 401.644 223.655 403.818 226.348C402.08 227.97 400.252 229.494 398.343 230.913C389.507 237.374 376.523 239.031 362.751 237.956C363.475 232.363 366.211 227.226 370.447 223.503C374.683 219.781 380.13 217.729 385.769 217.73V217.73Z" fill="#CA7358"/>
<path d="M281.055 241.857C278.318 236.382 272.103 222.186 276.593 212.713" stroke="#A15842" stroke-width="2.7378" stroke-linecap="round" stroke-linejoin="round"/>
<path d="M386.399 193.262L371.608 190.229" stroke="#A15842" stroke-width="2.7378" stroke-linecap="round" stroke-linejoin="round"/>
<path d="M269.947 241.611C267.1 235.834 260.94 221.906 265.3 212.713" stroke="#A15842" stroke-width="2.7378" stroke-linecap="round" stroke-linejoin="round"/>
<path d="M258.996 242.295C256.258 236.779 250.173 222.131 254.629 212.713" stroke="#A15842" stroke-width="2.7378" stroke-linecap="round" stroke-linejoin="round"/>
</g>
<defs>
<clipPath id="clip0_1502_418">
<rect width="615" height="603" fill="white"/>
</clipPath>
</defs>
</svg>
